<svg width="1728" height="1117" viewBox="0 0 1728 1117" fill="none" xmlns="http://www.w3.org/2000/svg">
<g clip-path="url(#clip0_412_10097)">
<rect width="1728" height="1117" fill="url(#paint0_radial_412_10097)"/>
<path style="mix-blend-mode:screen" d="M1576.89 550.886C1676.83 450.944 1676.83 288.905 1576.89 188.962C1476.94 89.0194 1314.9 89.0194 1214.96 188.962C1115.02 288.905 1115.02 450.944 1214.96 550.886C1314.9 650.829 1476.94 650.829 1576.89 550.886Z" fill="url(#paint1_radial_412_10097)"/>
<g filter="url(#filter0_d_412_10097)">
<path d="M783.607 146.638C677.9 146.638 798.084 46.3478 831.363 -14L1724 -13.9999L1724 616.396C1696.11 620.448 1605.47 630.55 1466.09 638.538C1291.87 648.524 1414.22 493.964 1416.18 429.709C1418.13 365.453 1296.28 375.439 1015.86 429.709C735.443 483.978 982.882 233.074 1031.52 146.638C1057.17 101.052 915.741 146.638 783.607 146.638Z" fill="url(#paint2_linear_412_10097)" fill-opacity="0.2" shape-rendering="crispEdges"/>
</g>
<g filter="url(#filter1_d_412_10097)">
<path d="M1070.47 35.6381C994.874 35.6381 1080.82 -64.6522 1104.62 -125L1743 -125L1743 505.396C1723.05 509.448 1658.23 519.55 1558.56 527.538C1433.96 537.524 1521.46 382.964 1522.86 318.709C1524.26 254.453 1437.11 264.439 1236.57 318.709C1036.03 372.978 1212.98 122.074 1247.77 35.6381C1266.11 -9.94835 1164.97 35.6381 1070.47 35.6381Z" fill="url(#paint3_linear_412_10097)" fill-opacity="0.2" shape-rendering="crispEdges"/>
</g>
<g style="mix-blend-mode:screen" opacity="0.13">
<path d="M334.308 275.192C368.38 134.465 281.918 -7.23676 141.192 -41.3081C0.464941 -75.3795 -141.237 11.0817 -175.308 151.808C-209.38 292.535 -122.918 434.237 17.8083 468.308C158.535 502.38 300.237 415.919 334.308 275.192Z" fill="#ED5A60"/>
</g>
<g style="mix-blend-mode:screen" opacity="0.13">
<path d="M359.852 241.558C375.364 86.6936 262.397 -51.424 107.532 -66.9362C-47.3323 -82.4483 -185.45 30.5192 -200.962 185.384C-216.474 340.248 -103.507 478.366 51.3579 493.878C206.223 509.39 344.34 396.423 359.852 241.558Z" fill="#ED5A60"/>
</g>
<g style="mix-blend-mode:screen" opacity="0.13">
<path d="M311.989 236.765C324.828 108.361 231.145 -6.13811 102.742 -18.9771C-25.6612 -31.8161 -140.161 61.8673 -153 190.27C-165.839 318.674 -72.1552 433.173 56.2479 446.012C184.651 458.851 299.15 365.168 311.989 236.765Z" fill="#ED5A60"/>
</g>
<path d="M283.236 213.477C283.236 244.496 276.296 273.909 263.926 300.206C252.123 325.276 235.363 347.513 214.92 365.737C212.087 368.286 209.16 370.741 206.185 373.102C171.437 400.721 127.388 417.246 79.5147 417.246C31.6414 417.246 -10.1887 401.571 -44.5121 375.132C-81.0545 347.041 -107.824 306.816 -118.777 260.501C-122.318 245.393 -124.207 229.671 -124.207 213.477C-124.207 191.807 -120.807 170.939 -114.575 151.393C-110.043 137.229 -104 123.679 -96.6345 111.074C-65.9937 58.4791 -12.4549 20.898 50.2903 11.8805C59.8271 10.5113 69.6001 9.8031 79.5147 9.8031C175.261 9.8031 255.569 75.8532 277.382 164.896C280.498 177.549 282.386 190.674 283 204.129C283.142 207.245 283.236 210.408 283.236 213.572V213.477Z" fill="#F878AB"/>
<g style="mix-blend-mode:multiply" opacity="0.5">
<path d="M283.235 213.478C283.235 244.497 276.295 273.91 263.926 300.207C252.122 325.277 235.362 347.514 214.919 365.738C212.086 368.287 209.159 370.742 206.185 373.103C203.824 369.704 201.511 366.257 199.009 363C190.133 351.385 176.252 340.857 162.041 344.303C148.68 347.514 141.173 361.3 130.787 370.27C112.232 386.37 81.3083 385.567 63.6509 368.476C48.8262 354.218 40.7057 329.62 20.3572 326.788C6.38232 324.852 -6.36506 334.955 -15.477 345.72C-24.4002 356.343 -32.2846 368.665 -44.5126 375.086C-81.0549 346.995 -107.824 306.77 -118.778 260.454C-122.318 245.346 -124.207 229.625 -124.207 213.431C-124.207 191.76 -120.808 170.893 -114.576 151.347C-110.043 137.183 -104 123.633 -96.635 111.027C-65.9942 58.4327 -12.4554 20.8517 50.2898 11.8342C59.8267 10.465 69.5996 9.75684 79.5142 9.75684C175.261 9.75684 255.569 75.8069 277.381 164.849C280.497 177.502 282.386 190.627 282.999 204.083C283.141 207.199 283.235 210.362 283.235 213.525V213.478Z" fill="#F878AB"/>
</g>
<g style="mix-blend-mode:multiply" opacity="0.5">
<path d="M283.236 213.478C283.236 244.497 276.296 273.91 263.926 300.207C241.453 288.546 235.457 251.437 210.01 246.338C196.507 243.647 183.099 251.767 173.326 261.54C163.6 271.313 155.715 283.116 144.432 291.048C135.178 297.516 123.847 300.915 112.516 300.963C106.992 300.963 101.468 300.254 96.1806 298.744C80.034 294.022 66.2008 282.125 58.7885 267.017C51.3289 251.815 47.6936 231.324 31.547 226.225C25.551 224.337 19.0357 225.187 13.0397 226.934C-15.6654 235.196 -36.6276 261.54 -65.5216 269.236C-83.4151 274.004 -103.291 270.747 -118.777 260.549C-122.318 245.441 -124.207 229.719 -124.207 213.525C-124.207 191.855 -120.807 170.987 -114.575 151.441C-110.043 137.277 -104 123.727 -96.6345 111.122C-65.9937 58.5272 -12.4549 20.9462 50.2903 11.9287C59.8271 10.5595 69.6001 9.85132 79.5147 9.85132C175.261 9.85132 255.569 75.9013 277.382 164.944C280.498 177.597 282.386 190.722 283 204.177C283.142 207.293 283.236 210.457 283.236 213.62V213.478Z" fill="#F878AB"/>
</g>
<g style="mix-blend-mode:multiply" opacity="0.5">
<path d="M277.381 164.848C268.505 170.467 257.316 172.591 247.873 168.342C237.486 163.668 231.538 152.904 224.692 143.745C217.893 134.585 207.365 125.898 196.27 128.495C189.755 130.006 185.175 134.869 181.445 140.628C178.801 144.689 176.582 149.221 174.363 153.376C165.015 170.844 150.285 186.236 131.495 192.515C112.704 198.794 89.7117 194.214 77.4837 178.587C69.1744 167.917 66.6721 153.99 61.762 141.384C56.8519 128.778 47.3623 115.984 33.9068 114.898C23.5673 114.095 14.1248 120.422 5.86263 126.748C-9.00925 138.079 -24.1172 150.59 -40.8304 158.38C-49.1397 162.252 -57.874 164.99 -67.1276 165.84C-83.9824 167.398 -101.309 161.921 -114.529 151.393C-109.996 137.229 -103.953 123.679 -96.5881 111.074C-65.9473 58.4791 -12.4085 20.898 50.3366 11.8805C59.8735 10.5113 69.6465 9.8031 79.5611 9.8031C175.308 9.8031 255.616 75.8532 277.428 164.896L277.381 164.848Z" fill="#F878AB"/>
</g>
<g style="mix-blend-mode:multiply" opacity="0.42">
<path d="M214.873 365.737C212.04 368.287 209.113 370.742 206.139 373.102C171.391 400.722 127.342 417.246 79.4683 417.246C31.595 417.246 -10.2351 401.571 -44.5585 375.132C-81.1008 347.041 -107.87 306.816 -118.824 260.501C-122.364 245.393 -124.253 229.671 -124.253 213.477C-124.253 191.807 -120.854 170.939 -114.622 151.393C-110.089 137.23 -104.046 123.68 -96.6809 111.074C-71.9889 112.585 -46.8719 127.504 -41.8202 151.488C-41.348 153.801 -41.0648 156.115 -40.9232 158.428C-40.0262 173.394 -45.4555 188.597 -45.8332 203.799C-46.3054 221.362 -34.2662 242.56 -16.9393 239.68C-10.3296 238.594 -4.85296 234.156 0.76531 230.521C24.041 215.366 55.5316 212.297 80.1292 225.281C104.727 238.264 120.118 267.961 114.028 295.108C113.556 297.091 113.036 299.073 112.423 301.009C110.156 308.469 107.182 315.834 106.851 323.624C106.427 333.444 112.328 344.728 122.148 345.342C127.294 345.672 132.11 343.028 136.878 341.092C163.978 330.186 195.658 343.264 214.779 365.784L214.873 365.737Z" fill="#FF6167"/>
</g>
<g style="mix-blend-mode:screen" opacity="0.47">
<path d="M283.001 204.035C275.825 203.469 268.696 202.572 261.614 201.25C226.818 194.734 190.181 174.103 181.447 140.629C180.928 138.693 180.55 136.758 180.22 134.728C177.481 117.306 182.202 97.6188 172.099 83.1718C161.476 67.9694 139.9 66.317 121.44 67.6861C102.98 69.1025 82.679 71.6519 67.4766 61.0764C52.227 50.4064 48.4028 31.1438 50.2441 11.8339C59.781 10.4648 69.5539 9.75659 79.4685 9.75659C175.215 9.75659 255.523 75.8067 277.335 164.849C280.451 177.502 282.34 190.627 282.954 204.083L283.001 204.035Z" fill="#FF6167"/>
</g>
<path style="mix-blend-mode:screen" d="M2042.88 1016.32C1819.21 712.216 1385.47 506 887.01 506C350.796 506 -110.532 744.644 -316 1087.06V1296.55H2042.88V1016.32Z" fill="url(#paint4_radial_412_10097)"/>
<path style="mix-blend-mode:screen" d="M1890.48 1001.44C1695.72 736.64 1318.03 557.066 883.972 557.066C417.051 557.066 15.3487 764.873 -163.574 1063.05V1245.47H1890.48V1001.44Z" fill="url(#paint5_radial_412_10097)"/>
<path style="mix-blend-mode:screen" d="M1776.59 1006.39C1603.43 785.753 1267.62 636.124 881.682 636.124C466.526 636.124 109.379 809.261 -49.7012 1057.72V1209.71H1776.59V1006.39Z" fill="url(#paint6_radial_412_10097)"/>
<path style="mix-blend-mode:screen" d="M244.036 820.183C235.452 912.405 503.126 923.93 808.531 895.745C1113.94 867.56 1328.42 972.584 1469.11 894.467C1524.83 863.533 1522.13 820.135 1492.83 778.062C1322.54 688.926 1110.95 636.124 881.682 636.124C652.417 636.124 425.611 692.832 252.281 787.875C247.966 798.339 245.072 809.14 244.036 820.183Z" fill="url(#paint7_radial_412_10097)"/>
<path opacity="0.5" d="M1213.24 769.262C1210.76 787.273 1174.01 796.321 1131.14 789.455C1088.3 782.589 1055.57 762.396 1058.05 744.385C1060.53 726.375 1097.28 717.326 1140.15 724.193C1182.99 731.059 1215.72 751.252 1213.24 769.262ZM422.135 744.92C381.686 761.626 353.771 788.984 359.825 805.99C365.857 822.995 403.568 823.252 444.018 806.525C484.467 789.819 512.382 762.46 506.328 745.455C500.296 728.449 462.585 728.193 422.135 744.92ZM559.013 774.353C529.858 785.583 509.537 804.642 513.601 816.899C517.665 829.156 544.574 829.99 573.729 818.739C602.885 807.509 623.206 788.45 619.141 776.193C615.077 763.936 588.168 763.102 559.013 774.353ZM624.489 685.027C602.457 692.514 586.778 706.075 589.494 715.337C592.189 724.599 612.254 726.054 634.286 718.567C656.318 711.08 671.997 697.519 669.281 688.257C666.585 678.995 646.521 677.54 624.489 685.027ZM1331.7 791.017C1310.59 780.92 1290.5 779.936 1286.87 788.835C1283.23 797.712 1297.39 813.091 1318.5 823.188C1339.61 833.284 1359.7 834.268 1363.34 825.37C1366.97 816.493 1352.81 801.113 1331.7 791.017ZM1231.34 829.156C1205.26 825.904 1183.19 832.15 1182.01 843.124C1180.83 854.076 1201.03 865.605 1227.08 868.856C1253.15 872.108 1275.23 865.862 1276.41 854.888C1277.58 843.937 1257.39 832.407 1231.34 829.156Z" fill="url(#paint8_radial_412_10097)"/>
<path style="mix-blend-mode:screen" d="M456.446 805.306C437.921 812.963 419.996 817.049 405.408 817.605C417.258 815.808 430.478 812.129 444.018 806.525C484.467 789.819 512.382 762.461 506.328 745.455C503.055 736.236 490.456 731.936 473.173 732.621C496.702 729.049 514.735 732.92 518.756 744.236C524.788 761.241 496.895 788.6 456.446 805.306ZM595.377 766.461C607.869 766.225 616.917 769.498 619.141 776.193C623.206 788.45 602.863 807.487 573.729 818.739C565.409 821.947 557.28 824.151 549.794 825.391C560.168 825.199 572.917 822.61 586.157 817.52C615.312 806.29 635.633 787.231 631.569 774.974C628.66 766.225 614.093 763.338 595.377 766.461ZM1140.15 724.172C1182.99 731.038 1215.72 751.231 1213.24 769.241C1211.79 779.851 1198.42 787.359 1178.91 790.311C1205 789.006 1223.91 780.771 1225.67 768.022C1228.15 750.011 1195.42 729.819 1152.58 722.952C1134.97 720.129 1118.42 720 1104.81 722.054C1115.59 721.519 1127.61 722.161 1140.15 724.172ZM1344.13 789.776C1328.02 782.076 1312.56 779.701 1304.49 782.931C1312.32 783.616 1321.88 786.311 1331.7 790.995C1352.81 801.092 1366.99 816.471 1363.34 825.348C1362.46 827.466 1360.64 829.006 1358.14 830.012C1367.14 830.782 1373.82 828.899 1375.76 824.129C1379.4 815.252 1365.24 799.872 1344.13 789.776ZM1243.76 827.915C1233.24 826.611 1223.4 826.867 1215.29 828.322C1220.36 828.193 1225.75 828.429 1231.34 829.113C1257.41 832.365 1277.58 843.873 1276.41 854.846C1275.7 861.391 1267.53 866.226 1255.55 868.386C1274.07 867.915 1287.91 862.226 1288.83 853.627C1290.01 842.675 1269.82 831.145 1243.76 827.894V827.915ZM650.585 680.214C660.553 680.214 667.74 682.952 669.281 688.214C671.976 697.476 656.318 711.059 634.286 718.525C629.58 720.129 624.981 721.284 620.617 722.075C628.147 722.075 637.238 720.514 646.714 717.305C668.746 709.819 684.425 696.257 681.708 686.995C679.591 679.701 666.714 677.284 650.585 680.214Z" fill="url(#paint9_radial_412_10097)"/>
<path opacity="0.5" d="M1267.08 865.005C1259.02 860.684 1248.02 857.283 1235.68 855.743C1219.42 853.711 1204.73 855.38 1195.68 859.594C1203.74 863.914 1214.74 867.315 1227.08 868.856C1243.34 870.888 1258.03 869.219 1267.08 865.005Z" fill="url(#paint10_radial_412_10097)"/>
<path opacity="0.5" d="M1209.15 777.604C1196.98 765.818 1172.98 755.358 1144.49 750.781C1108.88 745.069 1077.52 750.353 1066.48 762.631C1078.65 774.417 1102.65 784.877 1131.14 789.455C1166.76 795.166 1198.12 789.882 1209.15 777.604Z" fill="url(#paint11_radial_412_10097)"/>
<path opacity="0.5" d="M1298.2 810.182C1303.59 814.845 1310.54 819.38 1318.5 823.188C1333.47 830.353 1347.91 832.899 1356.34 830.61C1350.95 825.947 1344 821.412 1336.04 817.605C1321.07 810.439 1306.63 807.893 1298.2 810.182Z" fill="url(#paint12_radial_412_10097)"/>
<path opacity="0.5" d="M367.633 814.524C381.943 822.332 412.103 819.722 444.018 806.524C472.018 794.952 493.986 778.31 502.863 763.508C488.553 755.7 458.392 758.31 426.478 771.508C398.478 783.08 376.51 799.722 367.633 814.524Z" fill="url(#paint13_radial_412_10097)"/>
<path opacity="0.5" d="M628.831 711.615C619.719 714.695 611.74 718.845 605.666 723.273C613.623 723.679 623.719 722.161 634.286 718.567C643.398 715.487 651.377 711.337 657.452 706.909C649.495 706.503 639.398 708.021 628.831 711.615Z" fill="url(#paint14_radial_412_10097)"/>
<path opacity="0.5" d="M524.788 825.326C536.146 828.278 554.414 826.16 573.729 818.716C590.521 812.235 604.339 803.187 612.318 794.31C600.96 791.358 582.692 793.476 563.376 800.92C546.585 807.401 532.767 816.449 524.788 825.326Z" fill="url(#paint15_radial_412_10097)"/>
<path opacity="0.25" d="M482.521 825.327C484.489 832.107 472.852 842.075 456.531 847.616C440.21 853.156 425.365 852.15 423.397 845.37C421.43 838.589 433.066 828.621 449.387 823.081C465.708 817.541 480.553 818.546 482.521 825.327Z" fill="url(#paint16_radial_412_10097)"/>
<path opacity="0.25" d="M1093.15 699.807C1092.26 706.845 1077.77 710.503 1060.83 707.979C1043.87 705.455 1030.86 697.711 1031.76 690.674C1032.66 683.636 1047.14 679.979 1064.08 682.503C1081.05 685.027 1094.05 692.77 1093.15 699.807Z" fill="url(#paint17_radial_412_10097)"/>
<path opacity="0.25" d="M1448.28 842.568C1444.86 848.622 1430.22 845.755 1415.61 836.151C1401.01 826.547 1391.94 813.841 1395.36 807.766C1398.78 801.712 1413.41 804.579 1428.02 814.183C1442.63 823.787 1451.7 836.493 1448.28 842.568Z" fill="url(#paint18_radial_412_10097)"/>
<path opacity="0.25" d="M1133.54 707.187C1133.15 710.182 1127.01 711.722 1119.81 710.653C1112.62 709.583 1107.08 706.289 1107.46 703.316C1107.85 700.321 1113.99 698.781 1121.2 699.85C1128.38 700.92 1133.92 704.214 1133.54 707.187Z" fill="url(#paint19_radial_412_10097)"/>
<path opacity="0.25" d="M1203.59 808.685C1203.21 811.68 1197.07 813.22 1189.86 812.151C1182.67 811.081 1177.13 807.787 1177.52 804.814C1177.9 801.819 1184.04 800.279 1191.25 801.348C1198.46 802.418 1203.98 805.712 1203.59 808.685Z" fill="url(#paint20_radial_412_10097)"/>
<path opacity="0.25" d="M1271.7 741.369C1271.31 744.364 1265.18 745.904 1257.97 744.834C1250.76 743.765 1245.24 740.471 1245.62 737.497C1246.01 734.503 1252.15 732.963 1259.36 734.032C1266.54 735.102 1272.08 738.396 1271.7 741.369Z" fill="url(#paint21_radial_412_10097)"/>
<path opacity="0.25" d="M1329.03 846.333C1328 849.135 1321.69 849.05 1314.93 846.14C1308.17 843.231 1303.55 838.611 1304.58 835.809C1305.6 833.007 1311.91 833.092 1318.67 836.001C1325.41 838.91 1330.05 843.531 1329.03 846.333Z" fill="url(#paint22_radial_412_10097)"/>
<path opacity="0.25" d="M1314.01 765.797C1312.83 770.46 1302.76 771.594 1291.51 768.3C1280.26 765.006 1272.09 758.567 1273.26 753.904C1274.44 749.241 1284.51 748.107 1295.76 751.401C1307.02 754.695 1315.19 761.134 1314.01 765.797Z" fill="url(#paint23_radial_412_10097)"/>
<path opacity="0.25" d="M1103.59 797.376C1104.44 792.62 1095.8 787.101 1084.3 785.05C1072.79 782.999 1062.78 785.192 1061.93 789.949C1061.09 794.706 1069.72 800.225 1081.23 802.276C1092.73 804.326 1102.74 802.133 1103.59 797.376Z" fill="url(#paint24_radial_412_10097)"/>
<path opacity="0.25" d="M639.676 737.969C640.682 742.183 633.238 747.894 623.077 750.696C612.895 753.52 603.847 752.364 602.842 748.151C601.837 743.937 609.28 738.225 619.441 735.423C629.623 732.6 638.671 733.755 639.676 737.969Z" fill="url(#paint25_radial_412_10097)"/>
<path opacity="0.25" d="M629.195 818.118C630.2 822.332 622.757 828.044 612.596 830.846C602.414 833.669 593.366 832.514 592.361 828.3C591.355 824.086 598.799 818.375 608.96 815.573C619.142 812.749 628.19 813.904 629.195 818.118Z" fill="url(#paint26_radial_412_10097)"/>
<path opacity="0.25" d="M650.115 798.546C650.735 801.177 646.115 804.728 639.762 806.482C633.43 808.236 627.783 807.53 627.163 804.899C626.543 802.268 631.163 798.718 637.516 796.964C643.869 795.21 649.495 795.915 650.115 798.546Z" fill="url(#paint27_radial_412_10097)"/>
<path opacity="0.25" d="M587.612 692.878C588.232 695.509 583.612 699.06 577.259 700.814C570.927 702.568 565.28 701.862 564.66 699.231C564.04 696.6 568.66 693.049 575.013 691.295C581.345 689.541 586.992 690.247 587.612 692.878Z" fill="url(#paint28_radial_412_10097)"/>
<path opacity="0.25" d="M507.398 798.546C508.018 801.177 503.398 804.728 497.045 806.482C490.692 808.236 485.066 807.53 484.446 804.899C483.826 802.268 488.446 798.718 494.799 796.964C501.13 795.21 506.778 795.915 507.398 798.546Z" fill="url(#paint29_radial_412_10097)"/>
<path opacity="0.25" d="M727.869 726.931C729.837 733.711 718.201 743.679 701.88 749.219C685.559 754.76 670.714 753.754 668.746 746.973C666.778 740.193 678.414 730.225 694.735 724.685C711.056 719.144 725.901 720.15 727.869 726.931Z" fill="url(#paint30_radial_412_10097)"/>
<path opacity="0.25" d="M752.746 700.15C753.367 702.782 748.746 706.332 742.393 708.086C736.062 709.84 730.415 709.134 729.794 706.503C729.174 703.872 733.794 700.322 740.147 698.568C746.5 696.814 752.126 697.519 752.746 700.15Z" fill="url(#paint31_radial_412_10097)"/>
<path opacity="0.25" d="M511.825 713.455C512.446 716.086 507.825 719.637 501.472 721.391C495.141 723.145 489.494 722.439 488.873 719.808C488.253 717.177 492.873 713.626 499.226 711.872C505.558 710.118 511.205 710.824 511.825 713.455Z" fill="url(#paint32_radial_412_10097)"/>
<path fill-rule="evenodd" clip-rule="evenodd" d="M2009.26 1091.22H2044.7V759.018H1927.44C1911.91 686.889 1833.01 632 1738.03 632C1634.76 632 1550.51 696.875 1546.03 778.248C1466.35 796.919 1408.18 855.608 1408.18 925.118C1302.04 925.118 1216 993.652 1216 1078.19C1216 1162.73 1302.04 1231.26 1408.18 1231.26C1437.43 1231.26 1465.15 1226.06 1489.96 1216.75V1285.55H1545.84H1663.06H1836.16H1892.05H2009.26V1091.22Z" fill="url(#paint33_linear_412_10097)" fill-opacity="0.35"/>
<path fill-rule="evenodd" clip-rule="evenodd" d="M-280.562 1091.22H-316V759.018H-198.736C-183.207 686.889 -104.314 632 -9.32645 632C93.9416 632 178.186 696.875 182.668 778.248C262.349 796.919 320.518 855.608 320.518 925.118C426.657 925.118 512.7 993.652 512.7 1078.19C512.7 1162.73 426.657 1231.26 320.518 1231.26C291.273 1231.26 263.553 1226.06 238.739 1216.75V1285.55H182.856H65.6385H-107.462H-163.345H-280.562V1091.22Z" fill="url(#paint34_linear_412_10097)" fill-opacity="0.35"/>
<g style="mix-blend-mode:screen" opacity="0.13">
<path d="M975.457 170.957C951.456 71.5223 1012.61 -28.5421 1112.04 -52.5428C1211.48 -76.5436 1311.54 -15.392 1335.54 84.0429C1359.54 183.478 1298.39 283.542 1198.96 307.543C1099.52 331.544 999.458 270.392 975.457 170.957Z" fill="#FFC32A"/>
</g>
<g style="mix-blend-mode:screen" opacity="0.13">
<path d="M1155.58 326.547C1045.62 326.547 956.481 237.407 956.481 127.447C956.481 17.4875 1045.62 -71.6526 1155.58 -71.6526C1265.54 -71.6526 1354.68 17.4875 1354.68 127.447C1354.68 237.407 1265.54 326.547 1155.58 326.547Z" fill="#FFC32A"/>
</g>
<g style="mix-blend-mode:screen" opacity="0.13">
<path d="M994.686 164.452C974.256 75.6051 1029.72 -12.9819 1118.57 -33.4122C1207.41 -53.8425 1296 1.62033 1316.43 90.4675C1336.86 179.315 1281.4 267.901 1192.55 288.332C1103.7 308.762 1015.12 253.299 994.686 164.452Z" fill="#FFC32A"/>
</g>
<path d="M1008.77 127.447C1008.77 144.196 1011.58 160.299 1016.77 175.308C1017.25 176.654 1017.72 178.001 1018.23 179.347C1030.74 212.479 1054.89 239.888 1085.7 256.58C1106.49 267.858 1130.28 274.254 1155.55 274.254C1168.18 274.254 1180.44 272.655 1192.14 269.654C1200.78 267.437 1209.14 264.435 1217.08 260.76C1219.49 259.638 1221.87 258.46 1224.23 257.226C1224.87 256.889 1225.49 256.552 1226.14 256.188C1226.19 256.16 1226.28 256.103 1226.33 256.075C1226.84 255.795 1227.34 255.514 1227.85 255.234C1228.04 255.121 1228.24 255.009 1228.41 254.897C1229.64 254.196 1230.88 253.466 1232.11 252.709C1232.67 252.372 1233.23 252.036 1233.77 251.671C1233.94 251.559 1234.1 251.446 1234.27 251.334C1234.69 251.082 1235.09 250.829 1235.48 250.549C1235.79 250.352 1236.1 250.156 1236.4 249.96C1236.69 249.791 1236.97 249.595 1237.25 249.398C1237.47 249.258 1237.7 249.09 1237.95 248.921C1238.37 248.641 1238.79 248.332 1239.24 248.052C1239.41 247.94 1239.58 247.827 1239.74 247.715C1240.14 247.435 1240.53 247.182 1240.89 246.902C1241.09 246.761 1241.29 246.621 1241.48 246.481C1241.85 246.2 1242.24 245.92 1242.6 245.667C1242.83 245.499 1243.05 245.359 1243.25 245.19C1244.46 244.293 1245.66 243.367 1246.87 242.413C1247.35 242.02 1247.85 241.627 1248.33 241.235C1248.86 240.814 1249.37 240.365 1249.9 239.944C1250.04 239.832 1250.21 239.692 1250.35 239.551C1250.8 239.187 1251.25 238.794 1251.69 238.401C1251.69 238.401 1251.72 238.373 1251.75 238.345C1252.23 237.924 1252.68 237.532 1253.15 237.111C1253.32 236.97 1253.49 236.802 1253.66 236.662C1254.11 236.269 1254.56 235.876 1254.98 235.456C1254.98 235.456 1255.03 235.427 1255.03 235.399C1255.51 234.951 1255.99 234.502 1256.46 234.053C1256.55 233.969 1256.63 233.913 1256.69 233.828C1257.05 233.464 1257.45 233.127 1257.81 232.762C1258.51 232.089 1259.18 231.416 1259.86 230.714C1260.36 230.209 1260.84 229.704 1261.32 229.199C1261.82 228.666 1262.33 228.162 1262.8 227.628C1262.86 227.572 1262.92 227.516 1262.97 227.46C1263.39 227.011 1263.79 226.562 1264.18 226.142C1264.37 225.917 1264.57 225.721 1264.77 225.496C1265.02 225.216 1265.27 224.935 1265.53 224.655C1265.75 224.402 1265.97 224.15 1266.2 223.897C1266.42 223.645 1266.65 223.392 1266.87 223.112C1267.18 222.775 1267.46 222.438 1267.74 222.074C1267.83 221.962 1267.94 221.849 1268.02 221.737C1268.36 221.316 1268.72 220.924 1269.06 220.503C1269.42 220.054 1269.79 219.605 1270.15 219.128C1270.52 218.679 1270.88 218.202 1271.25 217.725C1272.2 216.519 1273.1 215.313 1274.03 214.078C1274.42 213.545 1274.78 213.04 1275.18 212.507C1275.18 212.507 1275.18 212.479 1275.2 212.451C1275.46 212.115 1275.68 211.778 1275.93 211.441C1276.16 211.133 1276.35 210.824 1276.58 210.543C1276.86 210.151 1277.11 209.758 1277.39 209.365C1277.42 209.309 1277.48 209.253 1277.5 209.197C1277.84 208.664 1278.21 208.159 1278.54 207.626C1278.6 207.542 1278.63 207.486 1278.68 207.401C1279.02 206.896 1279.36 206.363 1279.69 205.83C1280.06 205.269 1280.39 204.708 1280.76 204.147C1280.84 204.007 1280.93 203.867 1281.01 203.726C1281.26 203.306 1281.52 202.913 1281.77 202.492C1281.77 202.464 1281.82 202.408 1281.82 202.38C1282.13 201.875 1282.41 201.37 1282.72 200.837C1282.72 200.809 1282.78 200.753 1282.81 200.697C1283.11 200.163 1283.4 199.659 1283.7 199.125C1283.76 199.041 1283.82 198.957 1283.84 198.873C1284.15 198.34 1284.46 197.779 1284.74 197.246C1285.11 196.573 1285.44 195.927 1285.81 195.254C1285.95 194.973 1286.09 194.693 1286.26 194.412C1286.34 194.272 1286.43 194.104 1286.48 193.964C1286.62 193.711 1286.73 193.459 1286.85 193.206C1287.04 192.813 1287.24 192.449 1287.41 192.056C1287.74 191.354 1288.11 190.625 1288.45 189.924C1288.7 189.419 1288.92 188.886 1289.15 188.381C1289.76 187.034 1290.35 185.66 1290.94 184.285C1291.08 183.948 1291.22 183.612 1291.36 183.247C1291.53 182.854 1291.7 182.461 1291.84 182.069C1291.95 181.788 1292.06 181.507 1292.18 181.227C1292.26 181.031 1292.34 180.834 1292.4 180.61C1292.57 180.161 1292.74 179.74 1292.91 179.291C1292.99 179.039 1293.1 178.786 1293.19 178.534C1293.33 178.113 1293.49 177.72 1293.64 177.299C1293.72 177.075 1293.8 176.851 1293.89 176.626C1294.11 176.009 1294.34 175.364 1294.53 174.746C1294.67 174.298 1294.84 173.877 1294.98 173.428C1295.15 172.895 1295.32 172.39 1295.49 171.857C1295.57 171.576 1295.68 171.268 1295.77 170.959C1296.1 169.865 1296.44 168.771 1296.75 167.677C1296.83 167.368 1296.92 167.06 1297 166.751C1297.06 166.583 1297.09 166.414 1297.14 166.246C1297.31 165.629 1297.48 164.984 1297.65 164.366C1297.82 163.693 1298.01 162.992 1298.15 162.29C1298.15 162.206 1298.21 162.122 1298.21 162.038C1298.29 161.701 1298.38 161.365 1298.46 161.028C1298.57 160.523 1298.68 160.018 1298.8 159.513C1298.94 158.868 1299.08 158.195 1299.22 157.549C1299.27 157.325 1299.3 157.1 1299.36 156.876C1299.61 155.67 1299.84 154.463 1300.06 153.229C1300.06 153.201 1300.06 153.145 1300.06 153.117C1300.17 152.415 1300.31 151.742 1300.42 151.041C1300.51 150.592 1300.56 150.143 1300.62 149.694C1300.68 149.358 1300.73 149.021 1300.76 148.712C1300.82 148.235 1300.9 147.758 1300.96 147.282C1301.01 146.945 1301.04 146.58 1301.1 146.243C1301.15 145.851 1301.21 145.486 1301.24 145.093C1301.32 144.392 1301.41 143.662 1301.49 142.961C1301.49 142.905 1301.49 142.849 1301.49 142.793C1302.02 137.771 1302.28 132.665 1302.28 127.475C1302.28 120.322 1301.77 113.308 1300.79 106.435C1300.73 106.042 1300.68 105.649 1300.62 105.256C1300.51 104.471 1300.37 103.685 1300.26 102.928C1300.14 102.255 1300.03 101.581 1299.89 100.908C1299.67 99.6456 1299.41 98.4112 1299.16 97.1769C1299.16 97.1208 1299.16 97.0927 1299.16 97.0646C1299.05 96.5877 1298.97 96.0828 1298.85 95.6058C1298.77 95.185 1298.66 94.7642 1298.57 94.3153C1298.52 94.0067 1298.43 93.7262 1298.38 93.4176C1298.29 93.0809 1298.21 92.7443 1298.12 92.4357C1297.98 91.9027 1297.87 91.3977 1297.73 90.8647C1297.59 90.3317 1297.45 89.8267 1297.31 89.2937C1297.2 88.8728 1297.09 88.452 1296.97 88.0593C1296.92 87.8348 1296.83 87.6104 1296.78 87.386C1296.69 87.1054 1296.61 86.8249 1296.52 86.5443C1296.36 85.9271 1296.16 85.2819 1295.96 84.6647C1295.85 84.3281 1295.77 84.0195 1295.66 83.7109C1295.54 83.4023 1295.46 83.0656 1295.35 82.757C1295.07 81.9154 1294.81 81.0738 1294.5 80.2322C1294.36 79.8113 1294.22 79.3905 1294.08 78.9697C1293.75 77.9878 1293.38 77.006 1293.02 76.0521C1292.85 75.6313 1292.68 75.2105 1292.54 74.7616C1292.37 74.2847 1292.18 73.8358 1292.01 73.3869C1291.87 73.0222 1291.7 72.6295 1291.56 72.2648C1291.33 71.7318 1291.11 71.1987 1290.89 70.6377C1290.66 70.1046 1290.44 69.5716 1290.21 69.0386C1290.07 68.7019 1289.9 68.3653 1289.76 68.0286C1289.51 67.4395 1289.26 66.8784 1288.98 66.3173C1288.75 65.8124 1288.5 65.2793 1288.25 64.7744C1288.19 64.6621 1288.14 64.5499 1288.08 64.4377C1287.83 63.9047 1287.58 63.3716 1287.29 62.8386C1287.01 62.2495 1286.71 61.6323 1286.4 61.0432C1286.26 60.7907 1286.14 60.5382 1286 60.2857C1285.72 59.7526 1285.44 59.1916 1285.16 58.6585C1284.88 58.1255 1284.57 57.5925 1284.29 57.0314C1284.27 56.9473 1284.21 56.8631 1284.15 56.807C1283.87 56.302 1283.59 55.797 1283.31 55.292C1282.97 54.7029 1282.64 54.0857 1282.27 53.4966C1282.13 53.2441 1281.96 52.9916 1281.82 52.7391C1281.63 52.3744 1281.4 52.0097 1281.18 51.6731C1281.12 51.5609 1281.07 51.4767 1280.98 51.3645C1280.59 50.7192 1280.2 50.074 1279.8 49.4288C1279.5 48.9238 1279.19 48.4468 1278.88 47.9699C1278.37 47.2125 1277.9 46.455 1277.36 45.6975C1277.11 45.3048 1276.83 44.912 1276.55 44.5193C1276.44 44.3229 1276.3 44.1546 1276.19 43.9862C1275.82 43.4813 1275.48 42.9763 1275.12 42.4713C1274.64 41.798 1274.17 41.1247 1273.66 40.4795C1270.1 35.6261 1266.23 31.0253 1262.1 26.6769C1262.02 26.5646 1261.91 26.4805 1261.82 26.3963C1261.43 25.9755 1261.01 25.5547 1260.62 25.1339C1260.34 24.8253 1260.03 24.5448 1259.75 24.2362C1259.52 24.0117 1259.3 23.7873 1259.07 23.5629C1258.71 23.1982 1258.37 22.8615 1258.01 22.4968C1257.64 22.1321 1257.28 21.7955 1256.91 21.4308C1256.77 21.2905 1256.63 21.1502 1256.49 21.0099C1256.21 20.7294 1255.93 20.4769 1255.62 20.1964C1254.84 19.467 1254.02 18.7376 1253.24 18.0082C1252.93 17.7276 1252.62 17.4751 1252.31 17.1946C1251.61 16.5774 1250.91 15.9883 1250.21 15.3711C1249.95 15.1466 1249.7 14.9503 1249.45 14.7258C1248.1 13.6037 1246.76 12.5376 1245.41 11.4715C1245.19 11.3032 1244.99 11.1349 1244.76 10.9665C1243.9 10.3213 1243.05 9.67609 1242.16 9.03085C1241.57 8.61004 1240.98 8.18919 1240.39 7.76838C1240.14 7.572 1239.88 7.40371 1239.63 7.23539C1238.9 6.73041 1238.17 6.22541 1237.41 5.72044C1237.05 5.46795 1236.69 5.21548 1236.29 4.99105C1235.54 4.48608 1234.78 4.00914 1234.02 3.53222C1233.74 3.3639 1233.49 3.19559 1233.21 3.02727C1233.04 2.91505 1232.84 2.80281 1232.67 2.69059C1232.37 2.49421 1232.08 2.3259 1231.78 2.12952C1231.02 1.6526 1230.23 1.20372 1229.48 0.754851C1229.11 0.558472 1228.75 0.334036 1228.41 0.137657C1228.33 0.081549 1228.24 0.025475 1228.16 -0.00257913C1227.85 -0.170904 1227.51 -0.367289 1227.2 -0.535614C1226.78 -0.760047 1226.39 -0.984495 1225.97 -1.20893C1225.66 -1.37725 1225.38 -1.54557 1225.07 -1.68584C1224.93 -1.74195 1224.82 -1.82609 1224.68 -1.8822C1224.34 -2.05052 1224 -2.24691 1223.67 -2.41523C1222.85 -2.83605 1222.01 -3.2849 1221.2 -3.67766C1220.92 -3.81793 1220.64 -3.95823 1220.33 -4.0985C1219.91 -4.29488 1219.49 -4.51931 1219.1 -4.71569C1218.62 -4.94012 1218.14 -5.16453 1217.69 -5.38896C1217.05 -5.69756 1216.37 -6.00617 1215.73 -6.28672C1215.36 -6.45504 1215 -6.62334 1214.61 -6.79167C1214.47 -6.84778 1214.33 -6.93196 1214.16 -6.98807C1213.65 -7.2125 1213.15 -7.43692 1212.64 -7.6333C1212.08 -7.88579 1211.52 -8.11022 1210.96 -8.33465C1210.45 -8.53103 1209.95 -8.72743 1209.44 -8.92381C1208.83 -9.1763 1208.24 -9.40073 1207.62 -9.62516C1207.42 -9.70932 1207.23 -9.76544 1207.03 -9.8496C1206.64 -9.98987 1206.25 -10.1582 1205.83 -10.2984C1205.77 -10.2984 1205.71 -10.3546 1205.63 -10.3546C1205.1 -10.5509 1204.54 -10.7473 1204 -10.9437C1203.5 -11.112 1202.99 -11.3084 1202.49 -11.4767C1202.4 -11.5048 1202.29 -11.5328 1202.21 -11.5609C1201.67 -11.7292 1201.14 -11.9256 1200.58 -12.0939C1200.52 -12.0939 1200.47 -12.122 1200.41 -12.15C1199.91 -12.3183 1199.4 -12.4586 1198.9 -12.6269C1198.78 -12.655 1198.7 -12.6831 1198.59 -12.7392C1198.05 -12.9075 1197.52 -13.0758 1196.96 -13.2161C1196.9 -13.2161 1196.88 -13.2161 1196.82 -13.2441C1196.29 -13.3844 1195.75 -13.5527 1195.22 -13.693C1195.17 -13.693 1195.11 -13.7211 1195.05 -13.7491C1193.9 -14.0858 1192.75 -14.3663 1191.6 -14.6749C1191.52 -14.6749 1191.43 -14.731 1191.35 -14.731C1190.79 -14.8713 1190.23 -15.0116 1189.67 -15.1518C1189.11 -15.2921 1188.52 -15.4324 1187.96 -15.5446C1187.93 -15.5446 1187.87 -15.5446 1187.84 -15.5446C1186.61 -15.8251 1185.37 -16.0776 1184.14 -16.3301C1183.89 -16.3862 1183.64 -16.4423 1183.38 -16.4704C1182.93 -16.5545 1182.48 -16.6387 1182.04 -16.7228C1181.47 -16.8351 1180.91 -16.9192 1180.35 -17.0314C1179.99 -17.0876 1179.6 -17.1717 1179.23 -17.2278C1178.89 -17.2839 1178.56 -17.3401 1178.22 -17.3962C1177.66 -17.4803 1177.1 -17.5645 1176.51 -17.6486C1176.06 -17.7047 1175.61 -17.7608 1175.16 -17.845C1174.94 -17.873 1174.74 -17.9011 1174.52 -17.9292C1174.21 -17.9853 1173.9 -18.0133 1173.56 -18.0414C1173.09 -18.0975 1172.64 -18.1536 1172.16 -18.2097C1172.02 -18.2097 1171.88 -18.2378 1171.74 -18.2658C1171.29 -18.3219 1170.84 -18.378 1170.39 -18.4061C1170.11 -18.4341 1169.8 -18.4622 1169.52 -18.4903C1169.22 -18.5183 1168.88 -18.5464 1168.57 -18.5744C1168.23 -18.6025 1167.9 -18.6305 1167.56 -18.6586C1167.17 -18.6866 1166.77 -18.7147 1166.38 -18.7427C1166.13 -18.7427 1165.9 -18.7708 1165.65 -18.7989C1165.12 -18.8269 1164.61 -18.855 1164.08 -18.9111C1163.97 -18.9111 1163.86 -18.9111 1163.74 -18.9111C1163.07 -18.9391 1162.43 -18.9672 1161.75 -18.9952C1161.16 -18.9952 1160.57 -19.0513 1159.99 -19.0513C1159.2 -19.0513 1158.39 -19.1074 1157.6 -19.1074C1156.9 -19.1074 1156.23 -19.1074 1155.52 -19.1074C1154.54 -19.1074 1153.56 -19.1074 1152.58 -19.0794C1144.25 -18.9111 1136.08 -18.0695 1128.14 -16.5545C1127.55 -16.4423 1126.99 -16.3301 1126.4 -16.2179C1125.7 -16.0776 1125 -15.9373 1124.3 -15.769C1123.74 -15.6568 1123.15 -15.5165 1122.59 -15.3763C1122.45 -15.3763 1122.31 -15.3202 1122.2 -15.2921C1121.75 -15.1799 1121.3 -15.0957 1120.85 -14.9835C1120.79 -14.9835 1120.74 -14.9835 1120.71 -14.9554C1120.43 -14.8993 1120.15 -14.8152 1119.87 -14.7591C1119.81 -14.7591 1119.76 -14.759 1119.73 -14.731C1119.36 -14.6468 1119 -14.5346 1118.63 -14.4505C1118.58 -14.4505 1118.52 -14.4504 1118.47 -14.4224C1118.27 -14.3663 1118.04 -14.3102 1117.85 -14.2541C1116.87 -14.0016 1115.86 -13.7211 1114.87 -13.4405C1114.26 -13.2722 1113.64 -13.0758 1113.02 -12.9075C1112.55 -12.7672 1112.04 -12.6269 1111.56 -12.4586C1111.31 -12.3744 1111.03 -12.2903 1110.78 -12.2061C1110.3 -12.0659 1109.82 -11.8975 1109.35 -11.7292C1108.73 -11.5328 1108.14 -11.3084 1107.52 -11.112C1107.16 -10.9998 1106.79 -10.8595 1106.46 -10.7473C1105.53 -10.4107 1104.58 -10.074 1103.65 -9.70932C1103.04 -9.48489 1102.42 -9.2324 1101.8 -9.00797C1101.32 -8.81159 1100.82 -8.61519 1100.34 -8.41881C1099.87 -8.22243 1099.39 -8.02608 1098.91 -7.8297C1098.69 -7.74554 1098.49 -7.66136 1098.27 -7.54914C1097.28 -7.12833 1096.3 -6.70754 1095.32 -6.25868C1095.07 -6.14646 1094.84 -6.03421 1094.62 -5.922C1094.17 -5.72562 1093.72 -5.50118 1093.27 -5.3048C1092.82 -5.10843 1092.38 -4.884 1091.93 -4.65957C1091.93 -4.65957 1091.93 -4.65957 1091.9 -4.65957C1091.62 -4.5193 1091.34 -4.40709 1091.08 -4.26682C1090.86 -4.1546 1090.64 -4.0424 1090.41 -3.93018C1090.13 -3.78991 1089.82 -3.64963 1089.54 -3.4813C1088.76 -3.08855 1087.97 -2.66771 1087.19 -2.27496C1086.88 -2.10663 1086.57 -1.96637 1086.26 -1.79804C1085.92 -1.62972 1085.59 -1.43337 1085.25 -1.26505C1085 -1.12478 1084.72 -0.984497 1084.46 -0.816172C1084.04 -0.591739 1083.62 -0.367307 1083.23 -0.11482C1082.78 0.137667 1082.33 0.390166 1081.88 0.642653C1081.35 0.951249 1080.82 1.25983 1080.28 1.59648C1080.03 1.76481 1079.75 1.90507 1079.5 2.0734C1078.24 2.83086 1076.97 3.64445 1075.71 4.45801C1075.43 4.62634 1075.15 4.82272 1074.87 4.99105C1074.34 5.35575 1073.8 5.69237 1073.27 6.05708C1072.85 6.33762 1072.43 6.64625 1072.01 6.92679C1068.44 9.39555 1064.99 12.0045 1061.68 14.7819C1059.27 16.8018 1056.91 18.8778 1054.64 21.038C1054.39 21.2905 1054.14 21.5149 1053.88 21.7674C1049.7 25.7791 1045.78 30.0153 1042.1 34.5039C1039.27 37.9265 1036.6 41.5175 1034.11 45.1926C1032.87 47.0161 1031.69 48.8396 1030.54 50.7193C1030.26 51.1962 1029.98 51.645 1029.7 52.122C1029.17 53.0197 1028.64 53.9174 1028.13 54.8151C1027.93 55.1798 1027.71 55.5445 1027.51 55.9092C1026.36 57.9572 1025.24 60.0612 1024.2 62.1653C1023.28 64.0449 1022.35 65.9526 1021.51 67.8884C1020.44 70.273 1019.43 72.7137 1018.48 75.1544C1016.54 80.1761 1014.92 85.338 1013.54 90.6122C1011.07 100.066 1009.53 109.913 1009.03 120.013C1008.89 122.538 1008.83 125.091 1008.83 127.672L1008.77 127.447Z" fill="#FB8357"/>
<path d="M1152.61 -19.3033C1157.91 -11.336 1164.75 -4.26635 1172.47 1.5128C1175.19 3.56075 1178.05 5.46844 1180.97 7.17974C1201.36 19.1869 1225.29 23.7597 1248.92 25.5832C1253.21 25.9199 1257.53 26.1724 1261.85 26.2285C1261.46 25.8076 1261.04 25.3868 1260.64 24.966C1260.36 24.6574 1260.05 24.3769 1259.77 24.0683C1259.55 23.8439 1259.32 23.6194 1259.1 23.395C1258.74 23.0303 1258.4 22.6936 1258.03 22.3289C1257.67 21.9642 1257.3 21.6276 1256.94 21.2629C1256.8 21.1226 1256.66 20.9823 1256.52 20.8421C1256.24 20.5615 1255.96 20.3091 1255.65 20.0285C1254.86 19.2991 1254.05 18.5697 1253.26 17.8403C1252.96 17.5598 1252.65 17.3073 1252.34 17.0267C1251.64 16.4095 1250.94 15.8204 1250.24 15.2032C1249.98 14.9788 1249.73 14.7824 1249.48 14.558C1248.13 13.4358 1246.78 12.3698 1245.44 11.3037C1245.21 11.1354 1245.02 10.967 1244.79 10.7987C1243.95 10.1535 1243.08 9.48015 1242.18 8.86296C1241.59 8.44215 1241.01 8.02135 1240.42 7.60054C1240.16 7.40416 1239.91 7.23582 1239.66 7.0675C1238.93 6.56253 1238.2 6.05757 1237.44 5.5526C1237.08 5.30011 1236.71 5.04764 1236.32 4.82321C1235.56 4.31823 1234.81 3.8413 1234.05 3.36438C1233.77 3.19606 1233.51 3.02771 1233.23 2.85938C1233.07 2.74717 1232.87 2.63496 1232.7 2.52275C1232.39 2.32637 1232.11 2.15805 1231.8 1.96167C1231.05 1.48475 1230.26 1.03587 1229.5 0.587008C1229.14 0.390629 1228.77 0.166193 1228.44 -0.0301858C1228.35 -0.086294 1228.27 -0.142368 1228.18 -0.170422C1227.88 -0.338747 1227.54 -0.535132 1227.23 -0.703457C1226.81 -0.92789 1226.42 -1.15234 1226 -1.37677C1225.69 -1.5451 1225.41 -1.71342 1225.1 -1.85369C1224.96 -1.90979 1224.85 -1.99398 1224.71 -2.05009C1224.37 -2.21841 1224.03 -2.41475 1223.7 -2.58308C1222.88 -3.00389 1222.04 -3.45279 1221.23 -3.84555C1220.95 -3.98582 1220.67 -4.12607 1220.36 -4.26634C1219.94 -4.46272 1219.52 -4.68716 1219.12 -4.88353C1218.65 -5.10797 1218.17 -5.33242 1217.72 -5.55685C1217.08 -5.86544 1216.4 -6.17402 1215.76 -6.45456C1215.39 -6.62288 1215.03 -6.79123 1214.63 -6.95955C1214.49 -7.01566 1214.35 -7.0998 1214.19 -7.15591C1213.68 -7.38034 1213.18 -7.60476 1212.67 -7.80114C1212.11 -8.05363 1211.55 -8.27806 1210.99 -8.5025C1210.48 -8.69887 1209.98 -8.89527 1209.47 -9.09165C1208.86 -9.34414 1208.27 -9.56857 1207.65 -9.793C1207.45 -9.87717 1207.26 -9.93328 1207.06 -10.0174C1206.67 -10.1577 1206.27 -10.326 1205.85 -10.4663C1205.8 -10.4663 1205.74 -10.5224 1205.66 -10.5224C1205.12 -10.7188 1204.56 -10.9152 1204.03 -11.1116C1203.52 -11.2799 1203.02 -11.4763 1202.51 -11.6446C1202.43 -11.6726 1202.32 -11.7007 1202.23 -11.7287C1201.7 -11.8971 1201.17 -12.0935 1200.61 -12.2618C1200.55 -12.2618 1200.5 -12.2898 1200.44 -12.3179C1199.93 -12.4862 1199.43 -12.6264 1198.92 -12.7948C1198.81 -12.8228 1198.73 -12.8509 1198.62 -12.907C1198.08 -13.0753 1197.55 -13.2437 1196.99 -13.3839C1196.93 -13.3839 1196.9 -13.3839 1196.85 -13.412C1196.32 -13.5522 1195.78 -13.7206 1195.25 -13.8608C1195.19 -13.8608 1195.14 -13.8889 1195.08 -13.917C1193.93 -14.2536 1192.78 -14.5342 1191.63 -14.8428C1191.55 -14.8428 1191.46 -14.8988 1191.38 -14.8988C1190.82 -15.0391 1190.26 -15.1794 1189.69 -15.3197C1189.13 -15.4599 1188.54 -15.6002 1187.98 -15.7124C1187.95 -15.7124 1187.9 -15.7124 1187.87 -15.7124C1186.64 -15.993 1185.43 -16.2454 1184.17 -16.4979C1183.92 -16.554 1183.66 -16.6102 1183.41 -16.6382C1182.96 -16.7224 1182.51 -16.8065 1182.06 -16.8907C1181.5 -17.0029 1180.94 -17.0871 1180.38 -17.1993C1180.02 -17.2554 1179.62 -17.3396 1179.26 -17.3957C1178.92 -17.4518 1178.58 -17.5079 1178.25 -17.564C1177.69 -17.6482 1177.13 -17.7323 1176.54 -17.8165C1176.09 -17.8726 1175.64 -17.9287 1175.19 -18.0128C1174.97 -18.0409 1174.77 -18.069 1174.54 -18.097C1174.24 -18.1531 1173.93 -18.1812 1173.59 -18.2092C1173.11 -18.2653 1172.67 -18.3214 1172.19 -18.3776C1172.05 -18.3776 1171.91 -18.4056 1171.77 -18.4337C1171.32 -18.4898 1170.87 -18.5459 1170.42 -18.574C1170.14 -18.602 1169.83 -18.6301 1169.55 -18.6581C1169.24 -18.6862 1168.91 -18.7142 1168.6 -18.7423C1168.26 -18.7703 1167.92 -18.7984 1167.59 -18.8264C1167.19 -18.8545 1166.8 -18.8825 1166.41 -18.9106C1166.16 -18.9106 1165.93 -18.9387 1165.68 -18.9667C1165.15 -18.9948 1164.64 -19.0228 1164.11 -19.0789C1164 -19.0789 1163.88 -19.0789 1163.77 -19.0789C1163.1 -19.107 1162.45 -19.135 1161.78 -19.1631C1161.19 -19.1631 1160.6 -19.2192 1160.01 -19.2192C1159.23 -19.2192 1158.41 -19.2753 1157.63 -19.2753C1156.93 -19.2753 1156.25 -19.2753 1155.55 -19.2753C1154.57 -19.2753 1153.59 -19.2753 1152.61 -19.2472V-19.3033Z" fill="#FFC32A"/>
<path d="M1205.6 82.4205C1213.34 88.5082 1222.77 91.9308 1232.34 94.5679C1234.05 95.0448 1235.79 95.4937 1237.5 95.9145C1255.82 100.487 1274.45 103.77 1293.21 105.733C1295.74 105.986 1298.29 106.238 1300.87 106.407C1300.82 106.014 1300.76 105.621 1300.7 105.228C1300.59 104.443 1300.45 103.657 1300.34 102.9C1300.23 102.227 1300.12 101.553 1299.98 100.88C1299.75 99.6176 1299.5 98.3833 1299.25 97.1489C1299.25 97.0928 1299.25 97.0647 1299.25 97.0367C1299.13 96.5598 1299.05 96.0548 1298.94 95.5779C1298.85 95.157 1298.74 94.7363 1298.66 94.2874C1298.6 93.9788 1298.52 93.6982 1298.46 93.3896C1298.38 93.053 1298.29 92.7164 1298.21 92.4078C1298.07 91.8747 1297.96 91.3697 1297.82 90.8367C1297.67 90.3037 1297.53 89.7987 1297.39 89.2657C1297.28 88.8449 1297.17 88.424 1297.06 88.0313C1297 87.8069 1296.92 87.5825 1296.86 87.358C1296.78 87.0775 1296.69 86.7969 1296.61 86.5164C1296.44 85.8992 1296.24 85.254 1296.05 84.6368C1295.94 84.3001 1295.85 83.9915 1295.74 83.6829C1295.63 83.3743 1295.54 83.0377 1295.43 82.7291C1295.15 81.8874 1294.9 81.0458 1294.59 80.2042C1294.45 79.7834 1294.31 79.3626 1294.17 78.9418C1293.83 77.9599 1293.47 76.978 1293.1 76.0241C1292.93 75.6033 1292.77 75.1825 1292.63 74.7337C1292.46 74.2567 1292.26 73.8079 1292.09 73.359C1291.95 72.9943 1291.78 72.6016 1291.64 72.2369C1291.42 71.7038 1291.19 71.1708 1290.97 70.6097C1290.75 70.0767 1290.52 69.5436 1290.3 69.0106C1290.16 68.674 1289.99 68.3373 1289.85 68.0007C1289.6 67.4115 1289.34 66.8504 1289.06 66.2894C1288.84 65.7844 1288.59 65.2514 1288.33 64.7464C1288.28 64.6342 1288.22 64.522 1288.16 64.4097C1287.91 63.8767 1287.66 63.3437 1287.38 62.8107C1287.1 62.2215 1286.79 61.6043 1286.48 61.0152C1286.34 60.7627 1286.23 60.5102 1286.09 60.2577C1285.81 59.7247 1285.53 59.1636 1285.25 58.6306C1284.97 58.0976 1284.66 57.5645 1284.38 57.0035C1284.35 56.9193 1284.29 56.8351 1284.24 56.779C1283.96 56.274 1283.68 55.7691 1283.4 55.2641C1283.06 54.675 1282.72 54.0578 1282.36 53.4687C1282.22 53.2162 1282.05 52.9637 1281.91 52.7112C1281.71 52.3465 1281.49 51.9818 1281.26 51.6451C1281.21 51.5329 1281.15 51.4487 1281.07 51.3365C1280.67 50.6913 1280.28 50.0461 1279.89 49.4008C1279.58 48.8958 1279.27 48.4189 1278.96 47.942C1278.46 47.1845 1277.98 46.4271 1277.45 45.6696C1277.2 45.2769 1276.91 44.8841 1276.63 44.4913C1276.52 44.295 1276.38 44.1266 1276.27 43.9583C1275.9 43.4533 1275.57 42.9483 1275.2 42.4434C1254.47 44.4913 1233.4 42.78 1213.32 37.3095C1211.13 36.7203 1208.86 36.0751 1206.61 36.4398C1204.37 36.8045 1202.18 38.5158 1202.04 40.7601C1201.95 42.2751 1202.8 43.6497 1203.64 44.8841C1208.6 52.1501 1215.59 58.0415 1223.58 61.7166C1230.51 64.8867 1238.31 66.5418 1244.6 70.7219C1245.77 71.5074 1245.52 73.2748 1244.2 73.7518C1232.7 77.9599 1219.15 70.778 1206.41 70.9183C1205.29 70.9183 1204.11 71.0305 1203.13 71.5916C1199.29 73.8079 1202.15 79.8115 1205.63 82.5327L1205.6 82.4205Z" fill="#FFC32A"/>
<path d="M1072.04 6.7306C1076.64 15.8201 1082.78 24.2364 1089.77 31.6707C1100.17 42.7801 1112.35 51.9538 1125.03 60.4262C1129.32 63.2877 1133.64 66.0651 1137.99 68.8144C1141.33 70.9184 1144.95 73.0786 1148.9 72.8822C1152.83 72.6858 1156.79 68.8704 1155.58 65.1112C1155.13 63.6804 1154.04 62.5583 1152.97 61.5203C1149.18 57.8452 1145 54.4226 1141.13 50.7755C1137.99 47.8299 1135.05 44.7439 1132.69 41.2652C1130.98 38.7684 1133.53 35.5422 1136.36 36.6643C1139.98 38.0951 1143.41 40.648 1146.8 42.6679C1147.19 42.8923 1147.56 43.1168 1147.95 43.3412C1155.36 47.4932 1163.91 49.5131 1172.39 49.0642C1176 48.8959 1180.46 47.381 1180.72 43.762C1180.94 40.5358 1177.55 38.4037 1174.69 36.8888C1168.99 33.8589 1163.63 30.2399 1158.69 26.144C1145 14.8382 1134.34 -0.170697 1128.2 -16.8348C1127.61 -16.7226 1127.05 -16.6104 1126.46 -16.4982C1125.76 -16.3579 1125.06 -16.2177 1124.36 -16.0493C1123.8 -15.9371 1123.21 -15.7968 1122.65 -15.6566C1122.51 -15.6566 1122.36 -15.6005 1122.25 -15.5724C1121.8 -15.4602 1121.35 -15.376 1120.91 -15.2638C1120.85 -15.2638 1120.79 -15.2638 1120.77 -15.2358C1120.49 -15.1797 1120.2 -15.0955 1119.92 -15.0394C1119.87 -15.0394 1119.81 -15.0394 1119.78 -15.0113C1119.42 -14.9272 1119.05 -14.8149 1118.69 -14.7308C1118.63 -14.7308 1118.58 -14.7308 1118.52 -14.7027C1118.33 -14.6466 1118.1 -14.5905 1117.9 -14.5344C1116.92 -14.2819 1115.91 -14.0014 1114.93 -13.7208C1114.31 -13.5525 1113.7 -13.3562 1113.08 -13.1878C1112.6 -13.0476 1112.1 -12.9073 1111.62 -12.739C1111.37 -12.6548 1111.09 -12.5706 1110.83 -12.4865C1110.36 -12.3462 1109.88 -12.1779 1109.4 -12.0095C1108.79 -11.8131 1108.2 -11.5887 1107.58 -11.3923C1107.22 -11.2801 1106.85 -11.1399 1106.51 -11.0277C1105.59 -10.691 1104.63 -10.3543 1103.71 -9.98963C1103.09 -9.7652 1102.47 -9.51271 1101.86 -9.28828C1101.38 -9.0919 1100.88 -8.89554 1100.4 -8.69916C1099.92 -8.50279 1099.44 -8.30639 1098.97 -8.11001C1098.74 -8.02585 1098.55 -7.94171 1098.32 -7.82949C1097.34 -7.40868 1096.36 -6.98785 1095.38 -6.53899C1095.12 -6.42677 1094.9 -6.31457 1094.68 -6.20235C1094.23 -6.00597 1093.78 -5.78153 1093.33 -5.58516C1092.88 -5.38878 1092.43 -5.16436 1091.98 -4.93992C1091.98 -4.93992 1091.98 -4.93992 1091.95 -4.93992C1091.67 -4.79965 1091.39 -4.68744 1091.14 -4.54717C1090.92 -4.43495 1090.69 -4.32271 1090.47 -4.21049C1090.19 -4.07022 1089.88 -3.92998 1089.6 -3.76166C1088.81 -3.3689 1088.03 -2.94806 1087.24 -2.55531C1086.93 -2.38698 1086.62 -2.24672 1086.32 -2.07839C1085.98 -1.91007 1085.64 -1.71368 1085.31 -1.54536C1085.05 -1.40509 1084.77 -1.26481 1084.52 -1.09648C1084.1 -0.872048 1083.68 -0.647615 1083.29 -0.395128C1082.84 -0.142641 1082.39 0.109815 1081.94 0.362302C1081.41 0.670897 1080.87 0.979525 1080.34 1.31617C1080.09 1.4845 1079.81 1.62476 1079.55 1.79309C1078.29 2.55055 1077.03 3.36409 1075.77 4.17766C1075.49 4.34599 1075.21 4.54237 1074.93 4.7107C1074.39 5.0754 1073.86 5.41206 1073.33 5.77677C1072.91 6.05731 1072.48 6.3659 1072.06 6.64644L1072.04 6.7306Z" fill="#FFC32A"/>
<path d="M1100.74 144.364C1104.05 155.838 1111.65 165.994 1120.37 174.354C1126.49 180.217 1133.17 185.379 1139.87 190.569C1144.72 194.328 1149.58 198.115 1154.21 202.155C1155.69 203.446 1157.18 204.848 1157.83 206.7C1158.47 208.552 1157.94 210.964 1156.14 211.778C1154.15 212.676 1151.96 211.301 1150.14 210.123C1144.42 206.391 1137.82 204.035 1131.06 203.306C1127.81 202.941 1123.35 204.091 1123.49 207.345C1123.57 209.057 1125 210.347 1126.35 211.385C1132.77 216.323 1139.93 220.222 1147.08 224.038C1161.14 231.528 1175.39 238.822 1190.03 245.078C1201 249.763 1212.17 253.859 1223.67 257.057C1223.87 257.113 1224.09 257.169 1224.29 257.226C1224.93 256.889 1225.55 256.552 1226.19 256.188C1226.25 256.159 1226.33 256.103 1226.39 256.075C1226.9 255.795 1227.4 255.514 1227.91 255.234C1228.1 255.121 1228.3 255.009 1228.47 254.897C1229.7 254.196 1230.93 253.466 1232.17 252.709C1232.73 252.372 1233.29 252.035 1233.82 251.671C1233.99 251.559 1234.16 251.446 1234.33 251.334C1234.75 251.082 1235.14 250.829 1235.54 250.549C1235.84 250.352 1236.15 250.156 1236.46 249.96C1236.74 249.791 1237.02 249.595 1237.3 249.398C1237.53 249.258 1237.75 249.09 1238 248.921C1238.43 248.641 1238.85 248.332 1239.3 248.052C1239.46 247.94 1239.63 247.827 1239.8 247.715C1240.19 247.435 1240.59 247.182 1240.95 246.902C1241.15 246.761 1241.34 246.621 1241.54 246.481C1241.9 246.2 1242.3 245.92 1242.66 245.667C1242.89 245.499 1243.11 245.359 1243.31 245.19C1244.51 244.293 1245.72 243.367 1246.93 242.413C1247.4 242.02 1247.91 241.627 1248.38 241.235C1248.92 240.814 1249.42 240.365 1249.96 239.944C1250.1 239.832 1250.26 239.692 1250.4 239.551C1250.85 239.187 1251.3 238.794 1251.75 238.401C1251.75 238.401 1251.78 238.373 1251.81 238.345C1252.28 237.924 1252.73 237.531 1253.21 237.111C1253.38 236.97 1253.55 236.802 1253.71 236.662C1254.16 236.269 1254.61 235.876 1255.03 235.456C1255.03 235.456 1255.09 235.427 1255.09 235.399C1255.57 234.951 1256.04 234.502 1256.52 234.053C1256.6 233.969 1256.69 233.913 1256.74 233.828C1257.11 233.464 1257.5 233.127 1257.87 232.762C1258.57 232.089 1259.24 231.416 1259.91 230.714C1260.42 230.209 1260.9 229.704 1261.37 229.199C1261.88 228.666 1262.38 228.161 1262.86 227.628C1262.92 227.572 1262.97 227.516 1263.03 227.46C1263.45 227.011 1263.84 226.562 1264.24 226.142C1264.43 225.917 1264.63 225.721 1264.82 225.496C1265.08 225.216 1265.33 224.935 1265.58 224.655C1265.81 224.402 1266.03 224.15 1266.26 223.897C1266.48 223.645 1266.7 223.392 1266.93 223.112C1267.24 222.775 1267.52 222.438 1267.8 222.074C1267.88 221.961 1267.99 221.849 1268.08 221.737C1268.42 221.316 1268.78 220.923 1269.12 220.503C1269.48 220.054 1269.85 219.605 1270.21 219.128C1270.58 218.679 1270.94 218.202 1271.3 217.725C1272.26 216.519 1273.16 215.313 1274.08 214.078C1274.47 213.545 1274.84 213.04 1275.23 212.507C1275.23 212.507 1275.23 212.479 1275.26 212.451C1275.51 212.114 1275.74 211.778 1275.99 211.441C1276.21 211.133 1276.41 210.824 1276.64 210.543C1276.92 210.151 1277.17 209.758 1277.45 209.365C1277.48 209.309 1277.53 209.253 1277.56 209.197C1277.9 208.664 1278.26 208.159 1278.6 207.626C1278.65 207.542 1278.68 207.486 1278.74 207.401C1279.08 206.896 1279.41 206.363 1279.75 205.83C1280.11 205.269 1280.45 204.708 1280.82 204.147C1280.9 204.007 1280.98 203.867 1281.07 203.726C1281.32 203.305 1281.57 202.913 1281.83 202.492C1281.83 202.464 1281.88 202.408 1281.88 202.38C1282.19 201.875 1282.47 201.37 1282.78 200.837C1282.78 200.809 1282.84 200.753 1282.86 200.696C1283.17 200.163 1283.45 199.658 1283.76 199.125C1283.82 199.041 1283.87 198.957 1283.9 198.873C1284.21 198.34 1284.52 197.779 1284.8 197.246C1285.16 196.573 1285.5 195.927 1285.86 195.254C1286.01 194.973 1286.15 194.693 1286.31 194.412C1286.4 194.272 1286.48 194.104 1286.54 193.963C1286.68 193.711 1286.79 193.459 1286.9 193.206C1287.1 192.813 1287.3 192.449 1287.46 192.056C1287.8 191.354 1288.17 190.625 1288.5 189.924C1288.75 189.419 1288.98 188.886 1289.2 188.381C1289.82 187.034 1290.41 185.659 1291 184.285C1291.14 183.948 1291.28 183.612 1291.42 183.247C1291.59 182.854 1291.76 182.461 1291.9 182.069C1292.01 181.788 1292.12 181.507 1292.23 181.227C1292.32 181.031 1292.4 180.834 1292.46 180.61C1292.63 180.161 1292.79 179.74 1292.96 179.291C1293.05 179.039 1293.16 178.786 1293.24 178.534C1293.38 178.113 1293.55 177.72 1293.69 177.299C1293.78 177.075 1293.86 176.85 1293.94 176.626C1294.17 176.009 1294.39 175.364 1294.59 174.746C1294.73 174.298 1294.9 173.877 1295.04 173.428C1295.21 172.895 1295.38 172.39 1295.54 171.857C1295.63 171.576 1295.74 171.268 1295.82 170.959C1296.16 169.865 1296.5 168.771 1296.81 167.677C1296.89 167.368 1296.97 167.06 1297.06 166.751C1297.11 166.583 1297.14 166.414 1297.2 166.246C1297.37 165.629 1297.54 164.984 1297.7 164.366C1297.87 163.693 1298.07 162.992 1298.21 162.29C1298.21 162.206 1298.26 162.122 1298.26 162.038C1298.35 161.701 1298.43 161.365 1298.52 161.028C1298.63 160.523 1298.74 160.018 1298.85 159.513C1298.99 158.868 1299.13 158.194 1299.27 157.549C1299.33 157.325 1299.36 157.1 1299.41 156.876C1299.67 155.67 1299.89 154.463 1300.12 153.229C1300.12 153.201 1300.12 153.145 1300.12 153.117C1300.23 152.415 1300.37 151.742 1300.48 151.041C1300.57 150.592 1300.62 150.143 1300.68 149.694C1300.73 149.357 1300.79 149.021 1300.82 148.712C1300.87 148.235 1300.96 147.758 1301.01 147.281C1301.07 146.945 1301.1 146.58 1301.15 146.243C1301.21 145.851 1301.27 145.486 1301.29 145.093C1301.38 144.392 1301.46 143.662 1301.55 142.961C1301.55 142.905 1301.55 142.849 1301.55 142.793C1301.07 142.849 1300.57 142.933 1300.09 142.989C1280.11 145.71 1259.61 144.729 1240 140.128C1232.48 138.36 1225.07 136.06 1217.86 133.254C1213.15 131.403 1208.55 129.355 1204.03 127.054C1191.49 120.686 1179.76 112.691 1168.01 104.808C1150.76 93.1931 1133.47 81.8032 1113.64 76.0521C1111.7 75.491 1109.43 75.0702 1107.5 75.4629C1106.29 75.6873 1105.25 76.2484 1104.47 77.2303C1103.63 78.3244 1103.34 79.7832 1103.23 81.1579C1102.28 94.4836 1113.78 105.032 1124.25 113.364C1138.27 124.501 1152.33 135.667 1166.35 146.805C1170.51 150.087 1174.71 153.481 1177.6 157.914C1178.61 159.485 1179.48 161.252 1179.43 163.132C1179.32 167.116 1175.02 169.921 1171.07 169.893C1167.08 169.893 1163.44 167.817 1159.99 165.853C1149.13 159.597 1138.27 153.341 1127.42 147.113C1120.93 143.382 1114.15 139.567 1106.96 137.911C1103.09 137.014 1099.61 140.577 1100.71 144.42L1100.74 144.364Z" fill="#FFC32A"/>
<path d="M1053.91 21.5712C1059.75 31.6426 1067.66 40.7882 1074.76 50.1302C1076.92 52.9637 1078.99 57.0876 1076.69 59.8089C1075.57 61.1274 1073.72 61.5763 1072.01 61.4641C1068.56 61.2396 1065.55 59.0795 1062.89 56.8632C1054.98 50.3266 1047.99 42.7239 1042.13 34.3077L1053.91 21.5712Z" fill="#FFC32A"/>
<path d="M1021.45 67.6922C1025.8 74.6777 1030.82 81.2424 1036.41 87.274C1043.25 94.6523 1050.97 101.245 1059.38 106.8C1062.47 108.848 1065.67 110.755 1069.03 112.382C1069.71 112.719 1070.38 113.028 1071.05 113.336C1072.26 113.869 1073.55 114.374 1074.84 114.094C1077.31 113.589 1078.43 110.447 1077.73 108.034C1077.03 105.621 1075.09 103.798 1073.27 102.03C1061.71 90.8088 1052.54 77.5954 1044.37 63.6525C1040.78 57.5367 1037.42 51.2806 1034.11 44.9965C1032.87 46.82 1031.69 48.6435 1030.54 50.5231C1030.26 51 1029.98 51.4489 1029.7 51.9258C1029.17 52.8236 1028.64 53.7213 1028.13 54.619C1027.93 54.9837 1027.71 55.3484 1027.51 55.7132C1026.36 57.7611 1025.24 59.8651 1024.2 61.9692C1023.28 63.8488 1022.35 65.7565 1021.51 67.6922H1021.45Z" fill="#FFC32A"/>
<path d="M1008.77 127.448C1008.77 144.196 1011.58 160.299 1016.77 175.308C1017.25 176.655 1017.72 178.002 1018.23 179.348C1024.29 184.089 1030.63 188.578 1036.94 193.011C1040.73 195.676 1045.92 198.341 1049.59 195.535C1049.65 195.479 1049.7 195.451 1049.76 195.395C1052.43 193.179 1052.4 188.943 1051.16 185.688C1051.05 185.408 1050.94 185.127 1050.83 184.847C1049.51 181.817 1047.4 179.096 1045.13 176.487C1040.11 170.623 1034.41 165.237 1035.03 157.915C1045.16 164.031 1055.29 170.146 1065.41 176.262C1067.46 177.497 1069.65 178.787 1072.06 178.843C1074.48 178.899 1077.09 177.216 1077.17 174.831C1077.2 173.709 1076.69 172.615 1076.13 171.633C1072.2 164.48 1066.14 158.785 1060.42 152.977C1046.73 139.034 1034.47 123.717 1023.81 107.361C1020.22 101.835 1016.8 96.1958 1013.57 90.4447C1011.1 99.8989 1009.56 109.746 1009.05 119.845C1008.91 122.37 1008.86 124.923 1008.86 127.504L1008.77 127.448Z" fill="#FFC32A"/>
<path d="M1075.77 239.328C1078.12 245.612 1081.52 251.363 1085.7 256.581C1106.49 267.859 1130.28 274.255 1155.55 274.255C1168.18 274.255 1180.44 272.656 1192.14 269.655C1180.69 267.13 1169.44 262.641 1158.56 258.209C1135.75 248.923 1112.94 239.637 1090.13 230.351C1084.89 228.219 1077.14 227.012 1075.07 232.286C1074.17 234.531 1074.9 237.056 1075.74 239.328H1075.77Z" fill="#FFC32A"/>
<path d="M1228.8 203.783C1231.72 204.905 1235.11 206.561 1235.42 209.646C1231.27 210.656 1226.95 209.422 1222.91 207.991C1200.16 202.549 1177.15 195.648 1160.24 179.769C1156.2 175.982 1152.47 171.465 1151.48 166.022C1159.17 166.078 1165.96 170.707 1172.39 174.915C1190.09 186.502 1209.02 196.209 1228.8 203.755V203.783Z" fill="#FFE091"/>
<path d="M1189.61 244.491C1189.75 244.687 1189.89 244.883 1190.03 245.052C1192.44 248.222 1196.15 250.186 1199.71 252.009C1205.49 254.983 1211.24 257.985 1217.13 260.734C1219.54 259.612 1221.93 258.434 1224.29 257.199C1224.93 256.862 1225.55 256.526 1226.19 256.161C1226.25 256.133 1226.33 256.077 1226.39 256.049C1226.89 255.768 1227.4 255.488 1227.9 255.207C1228.1 255.095 1228.3 254.983 1228.47 254.871C1226.84 254.113 1225.24 253.328 1223.64 252.542C1213.2 247.352 1202.6 241.349 1190.96 241.208C1190.4 241.208 1189.81 241.208 1189.39 241.573C1188.57 242.274 1189.02 243.593 1189.61 244.463V244.491Z" fill="#FFE091"/>
<path d="M1024.32 151.098C1024.01 150.565 1023.73 150.032 1023.45 149.471L1024.85 151.827C1024.85 151.827 1024.65 151.575 1024.57 151.435C1024.48 151.322 1024.4 151.21 1024.32 151.098Z" fill="#FFE091"/>
<path d="M1021.17 148.208C1022.49 148.769 1023.45 149.919 1024.32 151.069C1025.97 154.099 1027.77 157.017 1029.65 159.878L1024.82 151.799C1027.43 155.418 1029.79 159.205 1031.89 163.133C1051.72 191.074 1082.16 210.825 1111.51 229.396C1105.67 232.903 1098.1 230.406 1092.15 227.068C1085.84 223.477 1080.09 219.016 1074.34 214.556C1067.6 209.31 1060.84 204.063 1054.11 198.817C1045.89 192.421 1037.59 185.941 1030.91 177.973C1024.74 170.595 1020.02 161.982 1017.13 152.781C1016.77 151.658 1016.46 150.368 1016.99 149.302C1017.72 147.899 1019.69 147.563 1021.15 148.208H1021.17Z" fill="#FFE091"/>
<path d="M1018.45 74.9585C1022.88 81.439 1028.1 87.3864 1033.83 92.885C1040.05 98.8606 1046.87 104.303 1053.88 109.297C1058.77 112.775 1064.66 116.226 1070.44 114.599C1070.02 113.841 1069.57 113.084 1069.06 112.383C1066.09 108.006 1061.96 104.415 1058.04 100.796C1051.22 94.4841 1044.77 87.8072 1038.71 80.7376C1033.55 74.706 1028.69 68.4499 1024.15 61.9413C1023.22 63.821 1022.3 65.7286 1021.45 67.6644C1020.39 70.049 1019.38 72.4897 1018.42 74.9304L1018.45 74.9585Z" fill="#FFE091"/>
<path d="M1212.22 120.828C1214.64 123.297 1217.19 125.625 1219.88 127.786C1226.02 132.695 1232.81 136.791 1240 140.101C1249.03 144.281 1258.71 147.311 1268.44 149.331C1278.88 151.491 1289.46 152.641 1300.09 153.231C1300.09 153.203 1300.09 153.146 1300.09 153.118C1300.2 152.417 1300.34 151.744 1300.45 151.042C1300.54 150.594 1300.59 150.145 1300.65 149.696C1300.7 149.359 1300.76 149.022 1300.79 148.714C1300.85 148.237 1300.93 147.76 1300.99 147.283C1301.04 146.947 1301.07 146.582 1301.13 146.245C1301.18 145.852 1301.24 145.488 1301.27 145.095C1301.35 144.394 1301.43 143.664 1301.52 142.963C1301.04 142.963 1300.56 142.963 1300.09 142.963C1276.16 143.299 1252.12 136.959 1231.61 124.587C1228.66 122.82 1225.72 120.912 1222.69 119.229C1218.73 117.069 1214.63 115.33 1210.17 114.909C1209.02 116.844 1210.62 119.229 1212.17 120.828H1212.22Z" fill="#FFE091"/>
<path d="M1054.64 20.8423C1055.01 21.4034 1055.4 21.9645 1055.79 22.5256C1063.98 34.2802 1073.3 45.2494 1083.59 55.2367C1091.08 62.5027 1099.08 69.2637 1107.5 75.4356C1122.65 86.5731 1139.17 95.8029 1156.62 102.816C1160.18 104.247 1164.42 105.482 1168.01 104.78C1169.52 104.5 1170.93 103.854 1172.11 102.732C1163.35 94.5966 1152.94 88.4808 1142.87 82.0003C1133.05 75.6881 1123.49 68.9832 1114.17 61.9135C1100.54 51.5615 1087.49 40.396 1075.15 28.5572C1070.49 24.0966 1065.92 19.4677 1061.68 14.5862C1059.27 16.6061 1056.91 18.6821 1054.64 20.8423Z" fill="#FFE091"/>
<path d="M1103.71 -9.90453C1115.8 8.44286 1131.54 24.4056 1149.77 36.6653C1150.45 37.1141 1151.15 37.563 1151.82 38.0119C1157.49 41.6028 1163.83 44.5485 1170.37 43.5946C1165.62 39.2463 1161 34.8137 1156.51 30.2409C1142.73 16.298 1130.02 1.28903 1118.52 -14.5896C1118.33 -14.5335 1118.1 -14.4773 1117.9 -14.4212C1116.92 -14.1688 1115.91 -13.8882 1114.93 -13.6077C1114.31 -13.4394 1113.7 -13.243 1113.08 -13.0747C1112.6 -12.9344 1112.1 -12.7941 1111.62 -12.6258C1111.37 -12.5416 1111.09 -12.4575 1110.83 -12.3733C1110.36 -12.233 1109.88 -12.0647 1109.4 -11.8964C1108.79 -11.7 1108.2 -11.4756 1107.58 -11.2792C1107.22 -11.167 1106.85 -11.0267 1106.51 -10.9145C1105.59 -10.5778 1104.63 -10.2412 1103.71 -9.87649V-9.90453Z" fill="#FFE091"/>
<path d="M1192.25 24.0406C1200.21 28.6696 1209.44 30.5772 1218.48 32.4007C1236.68 36.0758 1255.23 39.779 1273.72 40.312C1270.15 35.4587 1266.28 30.8578 1262.16 26.5094C1247.09 27.2669 1232.06 26.9302 1217.5 23.199C1207.68 20.6741 1198.11 16.6063 1187.95 16.0452C1186.27 18.9629 1189.33 22.3574 1192.25 24.0406Z" fill="#FFE091"/>
<path d="M1248.24 84.947C1259.27 92.3532 1272.51 96.0564 1285.75 97.0102C1290.24 97.3469 1294.73 97.3749 1299.22 97.1505C1299.22 97.0944 1299.22 97.0663 1299.22 97.0383C1299.11 96.5613 1299.02 96.0564 1298.91 95.5794C1298.83 95.1586 1298.71 94.7378 1298.63 94.289C1298.57 93.9804 1298.49 93.6998 1298.43 93.3912C1298.35 93.0546 1298.26 92.718 1298.18 92.4094C1298.04 91.8763 1297.93 91.3713 1297.79 90.8383C1297.65 90.3053 1297.51 89.8003 1297.37 89.2673C1297.25 88.8465 1297.14 88.4256 1297.03 88.0329C1296.97 87.8084 1296.89 87.584 1296.83 87.3596C1296.75 87.0791 1296.67 86.7985 1296.58 86.518C1296.41 85.9008 1296.22 85.2555 1296.02 84.6384C1290.63 84.9189 1285.22 84.8908 1279.83 84.5261C1269.26 83.7967 1258.37 81.833 1248.24 84.947Z" fill="#FFE091"/>
<g style="mix-blend-mode:multiply" opacity="0.17">
<path d="M1016.77 175.308C1017.25 176.654 1017.72 178.001 1018.23 179.348C1030.74 212.48 1054.89 239.888 1085.7 256.581C1106.49 267.858 1130.28 274.255 1155.55 274.255C1168.18 274.255 1180.44 272.656 1192.14 269.654C1200.78 267.438 1209.14 264.436 1217.08 260.761C1219.49 259.639 1221.87 258.46 1224.23 257.226C1224.87 256.889 1225.49 256.553 1226.14 256.188C1226.19 256.16 1226.28 256.104 1226.33 256.076C1226.84 255.795 1227.34 255.515 1227.85 255.234C1228.04 255.122 1228.24 255.01 1228.41 254.897C1229.64 254.196 1230.88 253.467 1232.11 252.709C1232.67 252.373 1233.23 252.036 1233.77 251.671C1233.94 251.559 1234.1 251.447 1234.27 251.335C1234.69 251.082 1235.09 250.83 1235.48 250.549C1235.79 250.353 1236.1 250.156 1236.4 249.96C1236.69 249.792 1236.97 249.595 1237.25 249.399C1237.47 249.259 1237.7 249.09 1237.95 248.922C1238.37 248.641 1238.79 248.333 1239.24 248.052C1239.41 247.94 1239.58 247.828 1239.74 247.716C1240.14 247.435 1240.53 247.183 1240.89 246.902C1241.09 246.762 1241.29 246.621 1241.48 246.481C1241.85 246.201 1242.24 245.92 1242.6 245.668C1242.83 245.499 1243.05 245.359 1243.25 245.191C1244.46 244.293 1245.66 243.367 1246.87 242.413C1247.35 242.021 1247.85 241.628 1248.33 241.235C1248.86 240.814 1249.37 240.365 1249.9 239.945C1250.04 239.832 1250.21 239.692 1250.35 239.552C1250.8 239.187 1251.25 238.794 1251.69 238.402C1251.69 238.402 1251.72 238.374 1251.75 238.345C1252.23 237.925 1252.68 237.532 1253.15 237.111C1253.32 236.971 1253.49 236.803 1253.66 236.662C1254.11 236.27 1254.56 235.877 1254.98 235.456C1254.98 235.456 1255.03 235.428 1255.03 235.4C1255.51 234.951 1255.99 234.502 1256.46 234.053C1256.55 233.969 1256.63 233.913 1256.69 233.829C1257.05 233.464 1257.45 233.127 1257.81 232.763C1258.51 232.089 1259.18 231.416 1259.86 230.715C1260.36 230.21 1260.84 229.705 1261.32 229.2C1261.82 228.667 1262.33 228.162 1262.8 227.629C1262.86 227.573 1262.92 227.517 1262.97 227.461C1263.39 227.012 1263.79 226.563 1264.18 226.142C1264.37 225.918 1264.57 225.721 1264.77 225.497C1265.02 225.216 1265.27 224.936 1265.53 224.655C1265.75 224.403 1265.97 224.15 1266.2 223.898C1266.42 223.645 1266.65 223.393 1266.87 223.112C1267.18 222.775 1267.46 222.439 1267.74 222.074C1267.83 221.962 1267.94 221.85 1268.02 221.737C1268.36 221.317 1268.72 220.924 1269.06 220.503C1269.42 220.054 1269.79 219.605 1270.15 219.128C1270.52 218.68 1270.88 218.203 1271.25 217.726C1272.2 216.519 1273.1 215.313 1274.03 214.079C1274.42 213.546 1274.78 213.041 1275.18 212.508C1275.18 212.508 1275.18 212.48 1275.2 212.452C1275.46 212.115 1275.68 211.778 1275.93 211.442C1276.16 211.133 1276.35 210.824 1276.58 210.544C1276.86 210.151 1277.11 209.758 1277.39 209.366C1277.42 209.309 1277.48 209.253 1277.5 209.197C1277.84 208.664 1278.21 208.159 1278.54 207.626C1278.6 207.542 1278.63 207.486 1278.68 207.402C1279.02 206.897 1279.36 206.364 1279.69 205.831C1280.06 205.27 1280.39 204.709 1280.76 204.148C1280.84 204.007 1280.93 203.867 1281.01 203.727C1281.26 203.306 1281.52 202.913 1281.77 202.492C1281.77 202.464 1281.82 202.408 1281.82 202.38C1282.13 201.875 1282.41 201.37 1282.72 200.837C1282.72 200.809 1282.78 200.753 1282.81 200.697C1283.11 200.164 1283.4 199.659 1283.7 199.126C1283.76 199.042 1283.82 198.958 1283.84 198.873C1284.15 198.34 1284.46 197.779 1284.74 197.246C1285.11 196.573 1285.44 195.928 1285.81 195.254C1285.95 194.974 1286.09 194.693 1286.26 194.413C1286.34 194.272 1286.43 194.104 1286.48 193.964C1286.62 193.711 1286.73 193.459 1286.85 193.206C1287.04 192.814 1287.24 192.449 1287.41 192.056C1287.74 191.355 1288.11 190.625 1288.45 189.924C1288.7 189.419 1288.92 188.886 1289.15 188.381C1289.76 187.035 1290.35 185.66 1290.94 184.285C1291.08 183.949 1291.22 183.612 1291.36 183.247C1291.53 182.854 1291.7 182.462 1291.84 182.069C1291.95 181.788 1292.06 181.508 1292.18 181.227C1292.26 181.031 1292.34 180.835 1292.4 180.61C1292.57 180.161 1292.74 179.74 1292.91 179.292C1292.99 179.039 1293.1 178.787 1293.19 178.534C1293.33 178.113 1293.49 177.721 1293.64 177.3C1293.72 177.075 1293.8 176.851 1293.89 176.626C1294.11 176.009 1294.34 175.364 1294.53 174.747C1294.67 174.298 1294.84 173.877 1294.98 173.428C1295.15 172.895 1295.32 172.39 1295.49 171.857C1295.57 171.577 1295.68 171.268 1295.77 170.96C1296.1 169.865 1296.44 168.771 1296.75 167.677C1296.83 167.369 1296.92 167.06 1297 166.751C1297.06 166.583 1297.09 166.415 1297.14 166.246C1297.31 165.629 1297.48 164.984 1297.65 164.367C1297.82 163.694 1298.01 162.992 1298.15 162.291C1298.15 162.207 1298.21 162.122 1298.21 162.038C1298.29 161.702 1298.38 161.365 1298.46 161.028C1298.57 160.523 1298.68 160.018 1298.8 159.513C1298.94 158.868 1299.08 158.195 1299.22 157.55C1299.27 157.325 1299.3 157.101 1299.36 156.876C1299.61 155.67 1299.84 154.464 1300.06 153.229C1300.06 153.201 1300.06 153.145 1300.06 153.117C1300.17 152.416 1300.31 151.742 1300.42 151.041C1300.51 150.592 1300.56 150.143 1300.62 149.695C1300.68 149.358 1300.73 149.021 1300.76 148.713C1300.82 148.236 1300.9 147.759 1300.96 147.282C1301.01 146.945 1301.04 146.58 1301.1 146.244C1301.15 145.851 1301.21 145.486 1301.24 145.094C1301.32 144.392 1301.41 143.663 1301.49 142.962C1301.49 142.905 1301.49 142.849 1301.49 142.793C1302.02 137.772 1302.28 132.666 1302.28 127.476C1302.28 120.322 1301.77 113.308 1300.79 106.435C1300.73 106.042 1300.68 105.65 1300.62 105.257C1300.51 104.471 1300.37 103.686 1300.26 102.928C1300.14 102.255 1300.03 101.582 1299.89 100.908C1299.67 99.646 1299.41 98.4116 1299.16 97.1772C1299.16 97.1211 1299.16 97.093 1299.16 97.065C1299.05 96.5881 1298.97 96.0831 1298.85 95.6062C1298.77 95.1854 1298.66 94.7646 1298.57 94.3157C1298.52 94.0071 1298.43 93.7265 1298.38 93.4179C1298.29 93.0813 1298.21 92.7447 1298.12 92.4361C1297.98 91.9031 1297.87 91.3981 1297.73 90.8651C1297.59 90.332 1297.45 89.8271 1297.31 89.294C1297.2 88.8732 1297.09 88.4524 1296.97 88.0596C1296.92 87.8352 1296.83 87.6108 1296.78 87.3863C1296.69 87.1058 1296.61 86.8252 1296.52 86.5447C1296.36 85.9275 1296.16 85.2823 1295.96 84.6651C1295.85 84.3284 1295.77 84.0198 1295.66 83.7113C1295.54 83.4027 1295.46 83.066 1295.35 82.7574C1295.07 81.9158 1294.81 81.0742 1294.5 80.2325C1294.36 79.8117 1294.22 79.3909 1294.08 78.9701C1293.75 77.9882 1293.38 77.0063 1293.02 76.0525C1292.85 75.6317 1292.68 75.2108 1292.54 74.762C1292.37 74.2851 1292.18 73.8362 1292.01 73.3873C1291.87 73.0226 1291.7 72.6299 1291.56 72.2652C1291.33 71.7321 1291.11 71.1991 1290.89 70.638C1290.66 70.105 1290.44 69.572 1290.21 69.039C1290.07 68.7023 1289.9 68.3657 1289.76 68.029C1289.51 67.4399 1289.26 66.8788 1288.98 66.3177C1288.75 65.8127 1288.5 65.2797 1288.25 64.7747C1288.19 64.6625 1288.14 64.5503 1288.08 64.4381C1287.83 63.9051 1287.58 63.372 1287.29 62.839C1287.01 62.2499 1286.71 61.6327 1286.4 61.0435C1286.26 60.791 1286.14 60.5385 1286 60.2861C1285.72 59.753 1285.44 59.1919 1285.16 58.6589C1284.88 58.1259 1284.57 57.5929 1284.29 57.0318C1284.27 56.9476 1284.21 56.8635 1284.15 56.8074C1283.87 56.3024 1283.59 55.7974 1283.31 55.2924C1282.97 54.7033 1282.64 54.0861 1282.27 53.497C1282.13 53.2445 1281.96 52.992 1281.82 52.7395C1281.63 52.3748 1281.4 52.0101 1281.18 51.6735C1281.12 51.5612 1281.07 51.4771 1280.98 51.3649C1260.5 60.0055 1242.72 75.1267 1232.28 94.6804C1231.27 96.56 1230.35 98.4677 1229.5 100.403C1226.78 106.547 1224.73 112.972 1222.66 119.368C1221.73 122.23 1220.81 125.091 1219.82 127.896C1219.18 129.72 1218.53 131.544 1217.81 133.339C1217.24 134.798 1216.63 136.229 1216.01 137.659C1208.35 154.913 1194.97 169.613 1178.73 179.151C1174.77 181.48 1170.65 183.5 1166.38 185.155C1157.91 188.465 1148.93 190.429 1139.81 190.682C1139.23 190.682 1138.61 190.71 1138.02 190.71C1119.78 190.822 1102.19 184.706 1084.3 181.171C1071.33 178.618 1058.21 177.384 1045.02 176.598C1044.15 176.542 1043.28 176.486 1042.44 176.43C1037.95 176.178 1033.46 175.953 1029 175.729C1028.75 175.729 1028.47 175.729 1028.22 175.701C1024.4 175.504 1020.56 175.336 1016.71 175.42L1016.77 175.308Z" fill="#E34148"/>
</g>
<g style="mix-blend-mode:screen" opacity="0.47">
<path d="M1008.97 119.788C1014.41 116.31 1019.38 112.102 1023.73 107.304C1027.68 102.928 1031.08 98.0745 1033.8 92.8845C1034.75 91.061 1035.62 89.1813 1036.41 87.2736C1037.28 85.1415 1038.06 82.9533 1038.71 80.737C1038.88 80.204 1039.02 79.6429 1039.16 79.1099C1040.5 74.0321 1041.29 68.7018 1043.98 64.2132C1044.09 64.0168 1044.21 63.8204 1044.35 63.6521C1047.8 58.3499 1053.27 55.3481 1059.47 54.0015C1064.99 52.7671 1071.14 52.8512 1076.89 53.8051C1078.32 54.0295 1079.72 54.3101 1081.13 54.6467C1081.94 54.8431 1082.75 55.0395 1083.57 55.2639C1093.72 57.929 1103.93 61.8286 1114.17 61.9408C1116.56 61.9688 1118.91 61.8005 1121.3 61.3516C1122.56 61.1272 1123.8 60.8186 1125 60.4539C1131.03 58.6023 1136.42 55.1517 1141.13 50.8033C1143.6 48.5309 1145.87 46.0341 1147.95 43.3689C1149.32 41.6296 1150.62 39.8341 1151.82 38.0106C1151.93 37.8423 1152.02 37.702 1152.13 37.5618C1153.67 35.1772 1155.13 32.7365 1156.51 30.2396C1157.26 28.893 1157.97 27.5464 1158.69 26.1998C1162.9 18.2605 1166.77 10.1248 1171.74 2.66245C1171.99 2.29775 1172.25 1.90497 1172.5 1.54026C1176.9 -4.88413 1182.15 -10.6633 1188.01 -15.713C1187.98 -15.713 1187.93 -15.713 1187.9 -15.713C1186.66 -15.9935 1185.43 -16.246 1184.2 -16.4985C1183.94 -16.5546 1183.69 -16.6107 1183.44 -16.6388C1182.99 -16.7229 1182.54 -16.8071 1182.09 -16.8913C1181.53 -17.0035 1180.97 -17.0876 1180.41 -17.1999C1180.04 -17.256 1179.65 -17.3402 1179.29 -17.3963C1178.95 -17.4524 1178.61 -17.5085 1178.28 -17.5646C1177.72 -17.6487 1177.15 -17.7329 1176.57 -17.8171C1176.12 -17.8732 1175.67 -17.9292 1175.22 -18.0134C1174.99 -18.0415 1174.8 -18.0696 1174.57 -18.0976C1174.26 -18.1537 1173.96 -18.1818 1173.62 -18.2098C1173.14 -18.2659 1172.69 -18.322 1172.22 -18.3781C1172.08 -18.3781 1171.94 -18.4062 1171.8 -18.4342C1171.35 -18.4904 1170.9 -18.5465 1170.45 -18.5745C1170.17 -18.6026 1169.86 -18.6306 1169.58 -18.6587C1169.27 -18.6867 1168.93 -18.7148 1168.63 -18.7428C1168.29 -18.7709 1167.95 -18.7989 1167.62 -18.827C1167.22 -18.8551 1166.83 -18.8831 1166.44 -18.9112C1166.19 -18.9112 1165.96 -18.9392 1165.71 -18.9673C1165.18 -18.9953 1164.67 -19.0234 1164.14 -19.0795C1164.03 -19.0795 1163.91 -19.0795 1163.8 -19.0795C1163.13 -19.1075 1162.48 -19.1356 1161.81 -19.1636C1161.22 -19.1636 1160.63 -19.2198 1160.04 -19.2198C1159.26 -19.2198 1158.44 -19.2759 1157.66 -19.2759C1156.96 -19.2759 1156.28 -19.2759 1155.58 -19.2759C1154.6 -19.2759 1153.62 -19.2759 1152.64 -19.2478C1144.3 -19.0795 1136.14 -18.2379 1128.2 -16.7229C1127.61 -16.6107 1127.05 -16.4985 1126.46 -16.3863C1125.76 -16.246 1125.06 -16.1058 1124.36 -15.9374C1123.8 -15.8252 1123.21 -15.6849 1122.65 -15.5447C1122.51 -15.5447 1122.36 -15.4886 1122.25 -15.4605C1121.8 -15.3483 1121.35 -15.2641 1120.91 -15.1519C1120.85 -15.1519 1120.79 -15.1519 1120.77 -15.1238C1120.49 -15.0677 1120.2 -14.9836 1119.92 -14.9275C1119.87 -14.9275 1119.81 -14.9275 1119.78 -14.8994C1119.42 -14.8152 1119.05 -14.703 1118.69 -14.6189C1118.63 -14.6189 1118.58 -14.6189 1118.52 -14.5908C1118.33 -14.5347 1118.1 -14.4786 1117.9 -14.4225C1116.92 -14.17 1115.91 -13.8895 1114.93 -13.6089C1114.31 -13.4406 1113.7 -13.2442 1113.08 -13.0759C1112.6 -12.9356 1112.1 -12.7954 1111.62 -12.627C1111.37 -12.5429 1111.09 -12.4587 1110.83 -12.3745C1110.36 -12.2343 1109.88 -12.066 1109.4 -11.8976C1108.79 -11.7013 1108.2 -11.4768 1107.58 -11.2804C1107.22 -11.1682 1106.85 -11.0279 1106.51 -10.9157C1105.59 -10.5791 1104.63 -10.2424 1103.71 -9.87774C1103.09 -9.6533 1102.47 -9.40082 1101.86 -9.17638C1101.38 -8.98 1100.88 -8.78361 1100.4 -8.58723C1099.92 -8.39085 1099.44 -8.19449 1098.97 -7.99812C1098.74 -7.91395 1098.55 -7.82977 1098.32 -7.71756C1097.34 -7.29675 1096.36 -6.87596 1095.38 -6.42709C1095.12 -6.31488 1094.9 -6.20263 1094.68 -6.09041C1094.23 -5.89404 1093.78 -5.66964 1093.33 -5.47326C1092.88 -5.27689 1092.43 -5.05242 1091.98 -4.82799C1091.98 -4.82799 1091.98 -4.82799 1091.95 -4.82799C1091.67 -4.68772 1091.39 -4.5755 1091.14 -4.43523C1090.92 -4.32302 1090.69 -4.21081 1090.47 -4.0986C1090.19 -3.95833 1089.88 -3.81805 1089.6 -3.64972C1088.81 -3.25696 1088.03 -2.83617 1087.24 -2.44342C1086.93 -2.27509 1086.62 -2.13483 1086.32 -1.9665C1085.98 -1.79818 1085.64 -1.60179 1085.31 -1.43347C1085.05 -1.2932 1084.77 -1.15291 1084.52 -0.98459C1084.1 -0.760157 1083.68 -0.535724 1083.29 -0.283237C1082.84 -0.03075 1082.39 0.221749 1081.94 0.474236C1081.41 0.782831 1080.87 1.09142 1080.34 1.42807C1080.09 1.59639 1079.81 1.73666 1079.55 1.90498C1078.29 2.66244 1077.03 3.47603 1075.77 4.2896C1075.49 4.45792 1075.21 4.65431 1074.93 4.82263C1074.39 5.18733 1073.86 5.52395 1073.33 5.88866C1072.91 6.1692 1072.48 6.47779 1072.06 6.75833C1068.5 9.22709 1065.05 11.8361 1061.74 14.6135C1059.33 16.6334 1056.97 18.7094 1054.7 20.8696C1054.45 21.1221 1054.19 21.3465 1053.94 21.599C1049.76 25.6107 1045.83 29.8469 1042.16 34.3355C1039.32 37.7581 1036.66 41.349 1034.16 45.0241C1032.93 46.8476 1031.75 48.6712 1030.6 50.5508C1030.32 51.0277 1030.04 51.4766 1029.76 51.9535C1029.23 52.8512 1028.69 53.749 1028.19 54.6467C1027.99 55.0114 1027.77 55.3761 1027.57 55.7408C1026.42 57.7888 1025.3 59.8928 1024.26 61.9969C1023.33 63.8765 1022.41 65.7842 1021.57 67.7199C1020.5 70.1045 1019.49 72.5452 1018.54 74.9859C1016.6 80.0076 1014.97 85.1696 1013.6 90.4437C1011.13 99.898 1009.59 109.745 1009.08 119.844L1008.97 119.788Z" fill="#E34148"/>
</g>
<path d="M691.525 215.035C688.971 218.879 682.65 223.316 683.502 232.759C684.147 239.931 689.745 242.588 691.396 247.644C686.288 244.136 681.85 239.208 673.259 239.182C664.204 239.182 661.108 246.819 656 247.567C667.274 238.77 670.318 226.593 660.283 214.596C670.654 222.723 677.8 226.231 691.525 215.035Z" fill="white"/>
<path d="M1392.04 395.879C1391.55 391.291 1393.57 383.837 1386.87 377.123C1381.79 372.023 1375.79 373.562 1371.28 370.731C1377.45 370.161 1384.02 371.11 1390.64 365.634C1397.6 359.842 1395.09 351.992 1398.54 348.149C1395.5 362.123 1400.95 373.43 1416.34 376.231C1403.17 376.619 1395.43 378.493 1392.04 395.879Z" fill="white"/>
<path d="M261.525 522.439C258.971 526.283 252.65 530.72 253.502 540.162C254.147 547.334 259.745 549.992 261.396 555.048C256.288 551.54 251.85 546.612 243.259 546.586C234.204 546.586 231.108 554.223 226 554.971C237.274 546.173 240.318 533.996 230.283 522C240.654 530.127 247.8 533.635 261.525 522.439Z" fill="white"/>
<path d="M715.569 132.479C712.396 134.801 709.326 134.233 706.875 131.086C704.27 127.732 705.302 124.636 708.475 122.314C711.338 120.225 714.254 120.663 716.524 123.372C719.156 126.494 718.82 129.564 715.569 132.479Z" fill="white"/>
<path d="M1426.37 474.716C1427.33 470.901 1430.05 469.373 1433.95 470.225C1438.09 471.136 1439.28 474.176 1438.33 477.99C1437.46 481.428 1434.94 482.956 1431.46 482.326C1427.44 481.61 1425.74 479.036 1426.37 474.716Z" fill="white"/>
<path d="M1358.99 629.598C1359.94 625.784 1362.67 624.256 1366.56 625.108C1370.71 626.019 1371.9 629.058 1370.95 632.873C1370.08 636.311 1367.56 637.839 1364.08 637.209C1360.06 636.493 1358.36 633.918 1358.99 629.598Z" fill="white"/>
<path d="M1426.37 614.598C1427.33 610.784 1430.05 609.256 1433.95 610.108C1438.09 611.019 1439.28 614.058 1438.33 617.873C1437.46 621.311 1434.94 622.839 1431.46 622.209C1427.44 621.493 1425.74 618.918 1426.37 614.598Z" fill="white"/>
<path d="M1648.99 614.598C1649.94 610.784 1652.67 609.256 1656.56 610.108C1660.71 611.019 1661.9 614.058 1660.95 617.873C1660.08 621.311 1657.56 622.839 1654.08 622.209C1650.06 621.493 1648.36 618.918 1648.99 614.598Z" fill="white"/>
<path d="M747.172 351.479C743.998 353.801 740.928 353.233 738.478 350.086C735.872 346.732 736.904 343.636 740.077 341.314C742.941 339.225 745.856 339.663 748.126 342.372C750.758 345.494 750.422 348.564 747.172 351.479Z" fill="white"/>
<path d="M1261.99 326.598C1262.94 322.784 1265.67 321.256 1269.56 322.108C1273.71 323.019 1274.9 326.058 1273.95 329.873C1273.08 333.311 1270.56 334.839 1267.08 334.209C1263.06 333.493 1261.36 330.918 1261.99 326.598Z" fill="white"/>
<path d="M435.172 351.479C431.998 353.801 428.928 353.233 426.478 350.086C423.872 346.732 424.904 343.636 428.077 341.314C430.941 339.225 433.856 339.663 436.126 342.372C438.758 345.494 438.422 348.564 435.172 351.479Z" fill="white"/>
<path d="M435.172 576.479C431.998 578.801 428.928 578.233 426.478 575.086C423.872 571.732 424.904 568.636 428.077 566.314C430.941 564.225 433.856 564.663 436.126 567.372C438.758 570.494 438.422 573.564 435.172 576.479Z" fill="white"/>
<path d="M68.1718 612.479C64.9985 614.801 61.9285 614.233 59.4776 611.086C56.8719 607.732 57.9038 604.636 61.0771 602.314C63.9407 600.225 66.856 600.663 69.1263 603.372C71.7578 606.494 71.4224 609.564 68.1718 612.479Z" fill="white"/>
<path d="M310.172 500.479C306.998 502.801 303.928 502.233 301.478 499.086C298.872 495.732 299.904 492.636 303.077 490.314C305.941 488.225 308.856 488.663 311.126 491.372C313.758 494.494 313.422 497.564 310.172 500.479Z" fill="white"/>
<path d="M287.172 655.479C283.998 657.801 280.928 657.233 278.478 654.086C275.872 650.732 276.904 647.636 280.077 645.314C282.941 643.225 285.856 643.663 288.126 646.372C290.758 649.494 290.422 652.564 287.172 655.479Z" fill="white"/>
<path opacity="0.2" d="M1756.5 491.5C1823.6 424.397 1823.6 315.603 1756.5 248.5C1689.4 181.397 1580.6 181.397 1513.5 248.5C1446.4 315.603 1446.4 424.397 1513.5 491.5C1580.6 558.603 1689.4 558.603 1756.5 491.5Z" fill="url(#paint35_linear_412_10097)"/>
<path d="M1739.02 474.019C1796.47 416.571 1796.47 323.429 1739.02 265.981C1681.57 208.533 1588.43 208.533 1530.98 265.981C1473.53 323.429 1473.53 416.571 1530.98 474.019C1588.43 531.467 1681.57 531.467 1739.02 474.019Z" fill="url(#paint36_linear_412_10097)"/>
<path d="M1497.93 346.821C1495.04 347.329 1492.23 347.878 1489.5 348.47C1485.52 375.32 1488.95 403.27 1500.25 429.021C1549.23 414.997 1574.94 369.105 1618.56 315.024C1653.91 271.19 1683.89 249.653 1702.57 239.35C1693.26 234.558 1683.53 230.78 1673.52 228.074C1655.49 268.004 1610.23 327.061 1497.93 346.821Z" fill="url(#paint37_linear_412_10097)"/>
<path d="M1626.73 369.541C1603.41 423.805 1538.62 447.893 1515.01 455.039C1515.41 455.603 1515.77 456.166 1516.18 456.73C1518.75 460.24 1521.45 463.566 1524.24 466.78C1548.4 460.761 1591.74 444.891 1629.57 404.186C1668.91 361.86 1739.24 342.014 1777.62 333.952C1773.14 316.207 1765.29 298.998 1753.83 283.296C1744.77 270.865 1734.1 260.294 1722.34 251.612C1683.96 272.317 1649.98 315.404 1626.73 369.541Z" fill="url(#paint38_linear_412_10097)"/>
<path d="M1641.97 447.752C1593.32 459.718 1564.27 476.449 1548.18 488.781C1566.7 502.326 1587.91 511.121 1609.98 514.941C1694.24 489.162 1750.97 430.585 1780.33 392.755C1781.91 382.621 1782.4 372.332 1781.86 362.043C1746.4 393.925 1692.87 435.236 1641.97 447.752Z" fill="url(#paint39_linear_412_10097)"/>
<path style="mix-blend-mode:screen" opacity="0.5" d="M345.142 629.142C398.004 576.281 398.004 490.576 345.142 437.714C292.281 384.853 206.576 384.853 153.714 437.714C100.853 490.576 100.853 576.281 153.714 629.142C206.576 682.004 292.281 682.004 345.142 629.142Z" fill="url(#paint40_radial_412_10097)"/>
</g>
<defs>
<filter id="filter0_d_412_10097" x="708.71" y="-42.1232" width="1047.58" height="717.579" filterUnits="userSpaceOnUse" color-interpolation-filters="sRGB">
<feFlood flood-opacity="0" result="BackgroundImageFix"/>
<feColorMatrix in="SourceAlpha" type="matrix" values="0 0 0 0 0 0 0 0 0 0 0 0 0 0 0 0 0 0 127 0" result="hardAlpha"/>
<feOffset dy="4.1664"/>
<feGaussianBlur stdDeviation="16.1448"/>
<feComposite in2="hardAlpha" operator="out"/>
<feColorMatrix type="matrix" values="0 0 0 0 1 0 0 0 0 1 0 0 0 0 1 0 0 0 0.1 0"/>
<feBlend mode="normal" in2="BackgroundImageFix" result="effect1_dropShadow_412_10097"/>
<feBlend mode="normal" in="SourceGraphic" in2="effect1_dropShadow_412_10097" result="shape"/>
</filter>
<filter id="filter1_d_412_10097" x="1007.71" y="-153.123" width="767.579" height="717.579" filterUnits="userSpaceOnUse" color-interpolation-filters="sRGB">
<feFlood flood-opacity="0" result="BackgroundImageFix"/>
<feColorMatrix in="SourceAlpha" type="matrix" values="0 0 0 0 0 0 0 0 0 0 0 0 0 0 0 0 0 0 127 0" result="hardAlpha"/>
<feOffset dy="4.1664"/>
<feGaussianBlur stdDeviation="16.1448"/>
<feComposite in2="hardAlpha" operator="out"/>
<feColorMatrix type="matrix" values="0 0 0 0 1 0 0 0 0 1 0 0 0 0 1 0 0 0 0.1 0"/>
<feBlend mode="normal" in2="BackgroundImageFix" result="effect1_dropShadow_412_10097"/>
<feBlend mode="normal" in="SourceGraphic" in2="effect1_dropShadow_412_10097" result="shape"/>
</filter>
<radialGradient id="paint0_radial_412_10097" cx="0" cy="0" r="1" gradientUnits="userSpaceOnUse" gradientTransform="translate(864 558.5) rotate(90) scale(385 409.428)">
<stop stop-color="#4429B0" stop-opacity="0.63"/>
<stop offset="0.0001" stop-color="#443878" stop-opacity="0.98"/>
<stop offset="1" stop-color="#0C003E"/>
</radialGradient>
<radialGradient id="paint1_radial_412_10097" cx="0" cy="0" r="1" gradientUnits="userSpaceOnUse" gradientTransform="translate(1395.92 369.928) scale(255.919)">
<stop stop-color="#5795C9"/>
<stop offset="0.17" stop-color="#5371B0" stop-opacity="0.76"/>
<stop offset="0.38" stop-color="#504A95" stop-opacity="0.49"/>
<stop offset="0.57" stop-color="#4D2C80" stop-opacity="0.28"/>
<stop offset="0.75" stop-color="#4B1670" stop-opacity="0.13"/>
<stop offset="0.9" stop-color="#4A0867" stop-opacity="0.03"/>
<stop offset="1" stop-color="#4A0464" stop-opacity="0"/>
</radialGradient>
<linearGradient id="paint2_linear_412_10097" x1="1199.58" y1="554.746" x2="1680.2" y2="-71.0927" gradientUnits="userSpaceOnUse">
<stop stop-color="#4D3D8C"/>
<stop offset="1" stop-color="white" stop-opacity="0"/>
</linearGradient>
<linearGradient id="paint3_linear_412_10097" x1="1367.96" y1="443.746" x2="1864.17" y2="-18.3446" gradientUnits="userSpaceOnUse">
<stop stop-color="#4D3D8C"/>
<stop offset="1" stop-color="white" stop-opacity="0"/>
</linearGradient>
<radialGradient id="paint4_radial_412_10097" cx="0" cy="0" r="1" gradientUnits="userSpaceOnUse" gradientTransform="translate(842.866 502.18) scale(1214.32 1366.12)">
<stop stop-color="#4A289C" stop-opacity="0"/>
<stop offset="0.96" stop-color="#00092B"/>
</radialGradient>
<radialGradient id="paint5_radial_412_10097" cx="0" cy="0" r="1" gradientUnits="userSpaceOnUse" gradientTransform="translate(844.81 554.189) scale(1057.41 1189.58)">
<stop stop-color="#4A289C" stop-opacity="0"/>
<stop offset="0.96" stop-color="#00092B"/>
</radialGradient>
<radialGradient id="paint6_radial_412_10097" cx="0" cy="0" r="1" gradientUnits="userSpaceOnUse" gradientTransform="translate(817.834 510.609) scale(940.13 990.494)">
<stop stop-color="#4A289C"/>
<stop offset="0.96" stop-color="#00092B"/>
</radialGradient>
<radialGradient id="paint7_radial_412_10097" cx="0" cy="0" r="1" gradientUnits="userSpaceOnUse" gradientTransform="translate(850.676 572.328) scale(608.015 608.015)">
<stop stop-color="#4A289C"/>
<stop offset="0.96" stop-color="#00092B"/>
</radialGradient>
<radialGradient id="paint8_radial_412_10097" cx="0" cy="0" r="1" gradientUnits="userSpaceOnUse" gradientTransform="translate(846.699 628.477) rotate(9.11) scale(467.52 500.618)">
<stop stop-color="#4A289C"/>
<stop offset="0.96" stop-color="#00092B"/>
</radialGradient>
<radialGradient id="paint9_radial_412_10097" cx="0" cy="0" r="1" gradientUnits="userSpaceOnUse" gradientTransform="translate(885.666 771.09) scale(347.477 375.399)">
<stop stop-color="#4A289C"/>
<stop offset="0.96" stop-color="#00092B"/>
</radialGradient>
<radialGradient id="paint10_radial_412_10097" cx="0" cy="0" r="1" gradientUnits="userSpaceOnUse" gradientTransform="translate(1003.8 530.563) scale(429.267 463.762)">
<stop stop-color="#4A289C"/>
<stop offset="0.96" stop-color="#00092B"/>
</radialGradient>
<radialGradient id="paint11_radial_412_10097" cx="0" cy="0" r="1" gradientUnits="userSpaceOnUse" gradientTransform="translate(1003.8 530.589) scale(429.267 463.761)">
<stop stop-color="#4A289C"/>
<stop offset="0.96" stop-color="#00092B"/>
</radialGradient>
<radialGradient id="paint12_radial_412_10097" cx="0" cy="0" r="1" gradientUnits="userSpaceOnUse" gradientTransform="translate(1003.8 530.59) scale(429.267 463.761)">
<stop stop-color="#4A289C"/>
<stop offset="0.96" stop-color="#00092B"/>
</radialGradient>
<radialGradient id="paint13_radial_412_10097" cx="0" cy="0" r="1" gradientUnits="userSpaceOnUse" gradientTransform="translate(1003.8 530.589) scale(429.267 463.762)">
<stop stop-color="#4A289C"/>
<stop offset="0.96" stop-color="#00092B"/>
</radialGradient>
<radialGradient id="paint14_radial_412_10097" cx="0" cy="0" r="1" gradientUnits="userSpaceOnUse" gradientTransform="translate(1003.8 530.59) scale(429.267 463.761)">
<stop stop-color="#4A289C"/>
<stop offset="0.96" stop-color="#00092B"/>
</radialGradient>
<radialGradient id="paint15_radial_412_10097" cx="0" cy="0" r="1" gradientUnits="userSpaceOnUse" gradientTransform="translate(1003.8 530.589) scale(429.267 463.762)">
<stop stop-color="#4A289C"/>
<stop offset="0.96" stop-color="#00092B"/>
</radialGradient>
<radialGradient id="paint16_radial_412_10097" cx="0" cy="0" r="1" gradientUnits="userSpaceOnUse" gradientTransform="translate(438.479 754.913) scale(130.975 141.499)">
<stop stop-color="#4A289C"/>
<stop offset="0.96" stop-color="#00092B"/>
</radialGradient>
<radialGradient id="paint17_radial_412_10097" cx="0" cy="0" r="1" gradientUnits="userSpaceOnUse" gradientTransform="translate(1034.69 598.953) rotate(27.02) scale(133.313 140.33)">
<stop stop-color="#4A289C"/>
<stop offset="0.96" stop-color="#00092B"/>
</radialGradient>
<radialGradient id="paint18_radial_412_10097" cx="0" cy="0" r="1" gradientUnits="userSpaceOnUse" gradientTransform="translate(1439.98 729.176) rotate(50.96) scale(137.991 135.652)">
<stop stop-color="#4A289C"/>
<stop offset="0.96" stop-color="#00092B"/>
</radialGradient>
<radialGradient id="paint19_radial_412_10097" cx="0" cy="0" r="1" gradientUnits="userSpaceOnUse" gradientTransform="translate(1079.23 651.751) rotate(27.0199) scale(56.5978 59.5766)">
<stop stop-color="#4A289C"/>
<stop offset="0.96" stop-color="#00092B"/>
</radialGradient>
<radialGradient id="paint20_radial_412_10097" cx="0" cy="0" r="1" gradientUnits="userSpaceOnUse" gradientTransform="translate(1146.04 751.83) rotate(27.0201) scale(56.5979 59.5768)">
<stop stop-color="#4A289C"/>
<stop offset="0.96" stop-color="#00092B"/>
</radialGradient>
<radialGradient id="paint21_radial_412_10097" cx="0" cy="0" r="1" gradientUnits="userSpaceOnUse" gradientTransform="translate(1219.02 686.59) rotate(27.0201) scale(56.5979 59.5768)">
<stop stop-color="#4A289C"/>
<stop offset="0.96" stop-color="#00092B"/>
</radialGradient>
<radialGradient id="paint22_radial_412_10097" cx="0" cy="0" r="1" gradientUnits="userSpaceOnUse" gradientTransform="translate(1281.1 771.945) rotate(41.33) scale(57.5907 58.5837)">
<stop stop-color="#4A289C"/>
<stop offset="0.96" stop-color="#00092B"/>
</radialGradient>
<radialGradient id="paint23_radial_412_10097" cx="0" cy="0" r="1" gradientUnits="userSpaceOnUse" gradientTransform="translate(1264.34 680.943) rotate(34.6) scale(91.6069 94.7932)">
<stop stop-color="#4A289C"/>
<stop offset="0.96" stop-color="#00092B"/>
</radialGradient>
<radialGradient id="paint24_radial_412_10097" cx="0" cy="0" r="1" gradientUnits="userSpaceOnUse" gradientTransform="translate(1043.29 709.747) rotate(28.35) scale(90.8102 94.793)">
<stop stop-color="#4A289C"/>
<stop offset="0.96" stop-color="#00092B"/>
</radialGradient>
<radialGradient id="paint25_radial_412_10097" cx="0" cy="0" r="1" gradientUnits="userSpaceOnUse" gradientTransform="translate(604.253 691.906) rotate(3.31) scale(80.3768 86.8357)">
<stop stop-color="#4A289C"/>
<stop offset="0.96" stop-color="#00092B"/>
</radialGradient>
<radialGradient id="paint26_radial_412_10097" cx="0" cy="0" r="1" gradientUnits="userSpaceOnUse" gradientTransform="translate(593.149 771.867) rotate(3.31) scale(80.3768 86.8357)">
<stop stop-color="#4A289C"/>
<stop offset="0.96" stop-color="#00092B"/>
</radialGradient>
<radialGradient id="paint27_radial_412_10097" cx="0" cy="0" r="1" gradientUnits="userSpaceOnUse" gradientTransform="translate(622.597 768.489) rotate(3.31) scale(50.0707 54.0942)">
<stop stop-color="#4A289C"/>
<stop offset="0.96" stop-color="#00092B"/>
</radialGradient>
<radialGradient id="paint28_radial_412_10097" cx="0" cy="0" r="1" gradientUnits="userSpaceOnUse" gradientTransform="translate(561.186 663.127) rotate(3.31) scale(50.0707 54.0942)">
<stop stop-color="#4A289C"/>
<stop offset="0.96" stop-color="#00092B"/>
</radialGradient>
<radialGradient id="paint29_radial_412_10097" cx="0" cy="0" r="1" gradientUnits="userSpaceOnUse" gradientTransform="translate(480.412 768.51) rotate(3.31) scale(50.0707 54.0942)">
<stop stop-color="#4A289C"/>
<stop offset="0.96" stop-color="#00092B"/>
</radialGradient>
<radialGradient id="paint30_radial_412_10097" cx="0" cy="0" r="1" gradientUnits="userSpaceOnUse" gradientTransform="translate(682.867 656.741) scale(130.975 141.499)">
<stop stop-color="#4A289C"/>
<stop offset="0.96" stop-color="#00092B"/>
</radialGradient>
<radialGradient id="paint31_radial_412_10097" cx="0" cy="0" r="1" gradientUnits="userSpaceOnUse" gradientTransform="translate(725.63 670.356) rotate(3.30999) scale(50.0708 54.0942)">
<stop stop-color="#4A289C"/>
<stop offset="0.96" stop-color="#00092B"/>
</radialGradient>
<radialGradient id="paint32_radial_412_10097" cx="0" cy="0" r="1" gradientUnits="userSpaceOnUse" gradientTransform="translate(485.512 683.639) rotate(3.30999) scale(50.0708 54.0942)">
<stop stop-color="#4A289C"/>
<stop offset="0.96" stop-color="#00092B"/>
</radialGradient>
<linearGradient id="paint33_linear_412_10097" x1="1407.84" y1="815" x2="1752" y2="1168.52" gradientUnits="userSpaceOnUse">
<stop stop-color="white"/>
<stop offset="1" stop-color="white" stop-opacity="0.17"/>
</linearGradient>
<linearGradient id="paint34_linear_412_10097" x1="320.862" y1="815" x2="-23.3035" y2="1168.52" gradientUnits="userSpaceOnUse">
<stop stop-color="white"/>
<stop offset="1" stop-color="white" stop-opacity="0.17"/>
</linearGradient>
<linearGradient id="paint35_linear_412_10097" x1="1496.16" y1="471.307" x2="1773.74" y2="268.739" gradientUnits="userSpaceOnUse">
<stop stop-color="#00BCD4"/>
<stop offset="1" stop-color="#283593"/>
</linearGradient>
<linearGradient id="paint36_linear_412_10097" x1="1484.39" y1="346.504" x2="1778.1" y2="392.393" gradientUnits="userSpaceOnUse">
<stop stop-color="#00BCD4"/>
<stop offset="1" stop-color="#283593"/>
</linearGradient>
<linearGradient id="paint37_linear_412_10097" x1="1416.74" y1="281.832" x2="1707.66" y2="361.782" gradientUnits="userSpaceOnUse">
<stop stop-color="#00BCD4"/>
<stop offset="1" stop-color="#283593"/>
</linearGradient>
<linearGradient id="paint38_linear_412_10097" x1="1521.46" y1="344.635" x2="1796.6" y2="384.07" gradientUnits="userSpaceOnUse">
<stop stop-color="#00BCD4"/>
<stop offset="1" stop-color="#283593"/>
</linearGradient>
<linearGradient id="paint39_linear_412_10097" x1="1545.85" y1="426.955" x2="1847.39" y2="450.179" gradientUnits="userSpaceOnUse">
<stop stop-color="#00BCD4"/>
<stop offset="1" stop-color="#283593"/>
</linearGradient>
<radialGradient id="paint40_radial_412_10097" cx="0" cy="0" r="1" gradientUnits="userSpaceOnUse" gradientTransform="translate(249.432 533.429) scale(135.36)">
<stop stop-color="white"/>
<stop offset="0.1" stop-color="#E5DBE8" stop-opacity="0.86"/>
<stop offset="0.29" stop-color="#B69AC1" stop-opacity="0.6"/>
<stop offset="0.47" stop-color="#8F649F" stop-opacity="0.39"/>
<stop offset="0.63" stop-color="#713A85" stop-opacity="0.22"/>
<stop offset="0.78" stop-color="#5B1C73" stop-opacity="0.1"/>
<stop offset="0.91" stop-color="#4E0A68" stop-opacity="0.03"/>
<stop offset="1" stop-color="#4A0464" stop-opacity="0"/>
</radialGradient>
<clipPath id="clip0_412_10097">
<rect width="1728" height="1117" fill="white"/>
</clipPath>
</defs>
</svg>
