<svg width="51" height="51" viewBox="0 0 51 51" fill="none" xmlns="http://www.w3.org/2000/svg">
<g clip-path="url(#clip0_1_5)">
<g filter="url(#filter0_dd_1_5)">
<path d="M25.2708 46.5416C37.5706 46.5416 47.5416 36.5706 47.5416 24.2708C47.5416 11.971 37.5706 2 25.2708 2C12.971 2 3 11.971 3 24.2708C3 36.5706 12.971 46.5416 25.2708 46.5416Z" fill="#E95682"/>
<path fill-rule="evenodd" clip-rule="evenodd" d="M30.4821 14.3223H19.1097C18.0673 14.3223 17.2144 15.1752 17.2144 16.2177V29.4854H19.1097V16.2177H30.4821V14.3223ZM33.3255 18.1138H22.9008C21.8584 18.1138 21.0054 18.9668 21.0054 20.0092V33.2769C21.0054 34.3194 21.8584 35.1723 22.9008 35.1723H33.3255C34.3679 35.1723 35.2209 34.3194 35.2209 33.2769V20.0092C35.2209 18.9668 34.3679 18.1138 33.3255 18.1138ZM22.9006 33.2761H33.3253V20.0084H22.9006V33.2761Z" fill="#FAFAFA"/>
</g>
</g>
<defs>
<filter id="filter0_dd_1_5" x="0.066" y="0.044002" width="50.4096" height="50.4096" filterUnits="userSpaceOnUse" color-interpolation-filters="sRGB">
<feFlood flood-opacity="0" result="BackgroundImageFix"/>
<feColorMatrix in="SourceAlpha" type="matrix" values="0 0 0 0 0 0 0 0 0 0 0 0 0 0 0 0 0 0 127 0" result="hardAlpha"/>
<feOffset dy="0.978002"/>
<feGaussianBlur stdDeviation="1.467"/>
<feColorMatrix type="matrix" values="0 0 0 0 0 0 0 0 0 0 0 0 0 0 0 0 0 0 0.1 0"/>
<feBlend mode="normal" in2="BackgroundImageFix" result="effect1_dropShadow_1_5"/>
<feColorMatrix in="SourceAlpha" type="matrix" values="0 0 0 0 0 0 0 0 0 0 0 0 0 0 0 0 0 0 127 0" result="hardAlpha"/>
<feOffset dy="0.978002"/>
<feGaussianBlur stdDeviation="0.978002"/>
<feColorMatrix type="matrix" values="0 0 0 0 0 0 0 0 0 0 0 0 0 0 0 0 0 0 0.06 0"/>
<feBlend mode="normal" in2="effect1_dropShadow_1_5" result="effect2_dropShadow_1_5"/>
<feBlend mode="normal" in="SourceGraphic" in2="effect2_dropShadow_1_5" result="shape"/>
</filter>
<clipPath id="clip0_1_5">
<rect width="51" height="51" fill="white"/>
</clipPath>
</defs>
</svg>
