<svg width="344" height="344" viewBox="0 0 344 344" fill="none" xmlns="http://www.w3.org/2000/svg">
<path fill-rule="evenodd" clip-rule="evenodd" d="M335.4 9.76563e-05C335.4 1.50627 335.787 2.922 336.468 4.1532C336.885 8.00398 339.203 11.2844 342.465 13.0368C338.448 13.7608 335.4 17.2746 335.4 21.5002C335.4 26.2498 339.251 30.1002 344 30.1002V34.4002C339.251 34.4002 335.4 38.2505 335.4 43.0002C335.4 47.7498 339.251 51.6002 344 51.6002V55.9002C339.251 55.9002 335.4 59.7505 335.4 64.5002C335.4 69.2498 339.251 73.1002 344 73.1002V77.4002C339.251 77.4002 335.4 81.2505 335.4 86.0002C335.4 90.7498 339.251 94.6002 344 94.6002V98.9002C339.251 98.9002 335.4 102.751 335.4 107.5C335.4 112.25 339.251 116.1 344 116.1V120.4C339.251 120.4 335.4 124.251 335.4 129C335.4 133.75 339.251 137.6 344 137.6V141.9C339.251 141.9 335.4 145.751 335.4 150.5C335.4 155.25 339.251 159.1 344 159.1V163.4C339.251 163.4 335.4 167.251 335.4 172C335.4 176.75 339.251 180.6 344 180.6V184.9C339.251 184.9 335.4 188.751 335.4 193.5C335.4 198.25 339.251 202.1 344 202.1V206.4C339.251 206.4 335.4 210.251 335.4 215C335.4 219.75 339.251 223.6 344 223.6V227.9C339.251 227.9 335.4 231.751 335.4 236.5C335.4 241.25 339.251 245.1 344 245.1V249.4C339.251 249.4 335.4 253.251 335.4 258C335.4 262.75 339.251 266.6 344 266.6V270.9C339.251 270.9 335.4 274.751 335.4 279.5C335.4 284.25 339.251 288.1 344 288.1V292.4C339.251 292.4 335.4 296.251 335.4 301C335.4 305.75 339.251 309.6 344 309.6V313.9C339.251 313.9 335.4 317.75 335.4 322.5C335.4 327.249 339.251 331.1 344 331.1V335.4C342.813 335.4 341.682 335.64 340.653 336.076C337.566 337.381 335.4 340.438 335.4 344C335.4 344 335.4 344 335.4 344H331.1C331.1 339.25 327.25 335.4 322.5 335.4C317.751 335.4 313.9 339.25 313.9 344H309.6C309.6 339.25 305.75 335.4 301 335.4C296.251 335.4 292.4 339.25 292.4 344H288.1C288.1 339.25 284.25 335.4 279.5 335.4C274.751 335.4 270.9 339.25 270.9 344H266.6C266.6 339.25 262.75 335.4 258 335.4C253.251 335.4 249.4 339.25 249.4 344H245.1C245.1 339.25 241.25 335.4 236.5 335.4C231.751 335.4 227.9 339.25 227.9 344H223.6C223.6 339.25 219.75 335.4 215 335.4C210.251 335.4 206.4 339.25 206.4 344H202.1C202.1 339.25 198.25 335.4 193.5 335.4C188.751 335.4 184.9 339.25 184.9 344H180.6C180.6 339.25 176.75 335.4 172 335.4C167.251 335.4 163.4 339.25 163.4 344H159.1C159.1 339.25 155.25 335.4 150.5 335.4C145.751 335.4 141.9 339.25 141.9 344H137.6C137.6 339.25 133.75 335.4 129 335.4C124.251 335.4 120.4 339.25 120.4 344H116.1C116.1 339.25 112.25 335.4 107.5 335.4C102.751 335.4 98.9002 339.25 98.9002 344H94.6002C94.6002 339.25 90.7498 335.4 86.0002 335.4C81.2505 335.4 77.4002 339.25 77.4002 344H73.1002C73.1002 339.25 69.2498 335.4 64.5002 335.4C59.7505 335.4 55.9002 339.25 55.9002 344H51.6002C51.6002 339.25 47.7498 335.4 43.0002 335.4C38.2505 335.4 34.4002 339.25 34.4002 344H30.1002C30.1002 339.25 26.2498 335.4 21.5002 335.4C16.7505 335.4 12.9002 339.25 12.9002 344L8.6001 344V344C8.6001 342.883 8.38732 341.816 8.00011 340.837C6.74014 337.653 3.63321 335.4 9.76563e-05 335.4H0V331.1H9.76563e-05C4.74975 331.1 8.6001 327.249 8.6001 322.5C8.6001 317.75 4.74975 313.9 9.76563e-05 313.9H0V309.6H9.76563e-05C4.74975 309.6 8.6001 305.75 8.6001 301C8.6001 296.25 4.74975 292.4 9.76563e-05 292.4H0V288.1H9.76563e-05C4.74975 288.1 8.6001 284.25 8.6001 279.5C8.6001 274.75 4.74975 270.9 9.76563e-05 270.9H0V266.6H9.76563e-05C4.74975 266.6 8.6001 262.75 8.6001 258C8.6001 253.25 4.74975 249.4 9.76563e-05 249.4H0V245.1H9.76563e-05C4.74975 245.1 8.6001 241.25 8.6001 236.5C8.6001 231.75 4.74975 227.9 9.76563e-05 227.9H0V223.6H9.76563e-05C4.74975 223.6 8.6001 219.75 8.6001 215C8.6001 210.25 4.74975 206.4 9.76563e-05 206.4H0V202.1H9.76563e-05C4.74975 202.1 8.6001 198.25 8.6001 193.5C8.6001 188.75 4.74975 184.9 9.76563e-05 184.9H0V180.6H9.76563e-05C4.74975 180.6 8.6001 176.75 8.6001 172C8.6001 167.25 4.74975 163.4 9.76563e-05 163.4H0V159.1H9.76563e-05C4.74975 159.1 8.6001 155.25 8.6001 150.5C8.6001 145.75 4.74975 141.9 9.76563e-05 141.9H0V137.6H9.76563e-05C4.74975 137.6 8.6001 133.75 8.6001 129C8.6001 124.25 4.74975 120.4 9.76563e-05 120.4H0V116.1H9.76563e-05C4.74975 116.1 8.6001 112.25 8.6001 107.5C8.6001 102.75 4.74975 98.9001 9.76563e-05 98.9001H0V94.6001H9.76563e-05C4.74975 94.6001 8.6001 90.7497 8.6001 86.0001C8.6001 81.2505 4.74975 77.4001 9.76563e-05 77.4001H0V73.1001H9.76563e-05C4.74975 73.1001 8.6001 69.2497 8.6001 64.5001C8.6001 59.7505 4.74975 55.9001 9.76563e-05 55.9001H0V51.6001H9.76563e-05C4.74975 51.6001 8.6001 47.7497 8.6001 43.0001C8.6001 38.2505 4.74975 34.4001 9.76563e-05 34.4001H0V30.1001H9.76563e-05C4.74975 30.1001 8.6001 26.2497 8.6001 21.5001C8.6001 18.4653 7.02814 15.7976 4.65405 14.2669C10.1728 13.4223 14.4 8.65476 14.4 2.89986C14.4 1.89817 14.2719 0.926387 14.0313 0H20.5187C20.2781 0.926345 20.15 1.89808 20.15 2.89972C20.15 9.251 25.2987 14.3997 31.65 14.3997C38.0013 14.3997 43.15 9.251 43.15 2.89972C43.15 1.89808 43.022 0.926345 42.7813 0H49.2687C49.0281 0.926345 48.9 1.89808 48.9 2.89972C48.9 9.251 54.0488 14.3997 60.4 14.3997C66.7513 14.3997 71.9 9.251 71.9 2.89972C71.9 1.89808 71.772 0.926345 71.5314 0H78.0187C77.7781 0.926345 77.65 1.89808 77.65 2.89972C77.65 9.251 82.7987 14.3997 89.15 14.3997C95.5013 14.3997 100.65 9.251 100.65 2.89972C100.65 1.89808 100.522 0.926345 100.281 0H106.769C106.528 0.926345 106.4 1.89808 106.4 2.89972C106.4 9.251 111.549 14.3997 117.9 14.3997C124.251 14.3997 129.4 9.251 129.4 2.89972C129.4 1.89808 129.272 0.926345 129.031 0H135.519C135.278 0.926345 135.15 1.89808 135.15 2.89972C135.15 9.251 140.299 14.3997 146.65 14.3997C153.001 14.3997 158.15 9.251 158.15 2.89972C158.15 1.89808 158.022 0.926345 157.781 0H164.269C164.028 0.926345 163.9 1.89808 163.9 2.89972C163.9 9.251 169.049 14.3997 175.4 14.3997C181.751 14.3997 186.9 9.251 186.9 2.89972C186.9 1.89808 186.772 0.926345 186.531 0H193.019C192.778 0.926345 192.65 1.89808 192.65 2.89972C192.65 9.251 197.799 14.3997 204.15 14.3997C210.501 14.3997 215.65 9.251 215.65 2.89972C215.65 1.89808 215.522 0.926345 215.281 0H221.769C221.528 0.926345 221.4 1.89808 221.4 2.89972C221.4 9.251 226.549 14.3997 232.9 14.3997C239.251 14.3997 244.4 9.251 244.4 2.89972C244.4 1.89808 244.272 0.926345 244.031 0H250.519C250.278 0.926345 250.15 1.89808 250.15 2.89972C250.15 9.251 255.299 14.3997 261.65 14.3997C268.001 14.3997 273.15 9.251 273.15 2.89972C273.15 1.89808 273.022 0.926345 272.781 0H279.269C279.028 0.926345 278.9 1.89808 278.9 2.89972C278.9 9.251 284.049 14.3997 290.4 14.3997C296.751 14.3997 301.9 9.251 301.9 2.89972C301.9 1.89808 301.772 0.926345 301.531 0H308.019C307.778 0.926345 307.65 1.89808 307.65 2.89972C307.65 9.251 312.799 14.3997 319.15 14.3997C325.501 14.3997 330.65 9.251 330.65 2.89972C330.65 1.89808 330.522 0.926345 330.281 0H335.4V9.76563e-05Z" fill="white"/>
</svg>
