<svg width="39" height="36" viewBox="0 0 39 36" fill="none" xmlns="http://www.w3.org/2000/svg">
<g id="heroicons-solid/home">
<g id="Union">
<path d="M18.6382 5.71504C19.1142 5.27922 19.8858 5.27923 20.3618 5.71504L34.482 18.6444C34.9579 19.0802 35.7296 19.0802 36.2055 18.6444C36.6815 18.2085 36.6815 17.502 36.2055 17.0661L22.0854 4.13682C20.6575 2.82939 18.3425 2.82939 16.9146 4.13683L2.79446 17.0661C2.31851 17.502 2.31851 18.2085 2.79446 18.6444C3.27042 19.0802 4.04208 19.0802 4.51804 18.6444L18.6382 5.71504Z" fill="#E95682" fill-opacity="0.84"/>
<path d="M19.5 8.08235L32.7584 20.2226C32.8067 20.2668 32.856 20.3095 32.9062 20.3507V29.5729C32.9062 31.1137 31.5421 32.3628 29.8594 32.3628H24.375C23.7019 32.3628 23.1562 31.8631 23.1562 31.2468V24.551C23.1562 23.9347 22.6106 23.4351 21.9375 23.4351H17.0625C16.3894 23.4351 15.8438 23.9347 15.8438 24.551V31.2468C15.8438 31.8631 15.2981 32.3628 14.625 32.3628H9.14062C7.45788 32.3628 6.09375 31.1137 6.09375 29.5729V20.3507C6.14401 20.3095 6.19332 20.2668 6.24161 20.2226L19.5 8.08235Z" fill="#E95682" fill-opacity="0.84"/>
</g>
</g>
</svg>
