<svg width="58" height="58" viewBox="0 0 58 58" fill="none" xmlns="http://www.w3.org/2000/svg">
<path fill-rule="evenodd" clip-rule="evenodd" d="M0.858872 22.5819C0.749261 12.5636 0.704697 8.49059 4.431 4.62006C8.3417 0.565166 12.6124 0.600826 27.5674 0.725703C30.6641 0.751561 34.2189 0.781244 38.3235 0.779227C44.9444 0.79077 45.3205 0.845365 46.5754 1.02753L46.6473 1.03795C52.3838 1.8635 56.7374 5.93954 57.2925 13.012C57.3677 13.9575 57.3677 44.0421 57.2948 44.9688C56.7727 51.6085 52.953 55.4165 48.2584 56.6277C44.7421 57.538 13.545 57.538 10.0241 56.6324C0.330342 54.1271 0.562805 44.6265 0.818804 34.164C0.860577 32.4567 0.902977 30.7239 0.902977 28.9916C0.902977 26.613 0.879745 24.4896 0.858872 22.5819ZM27.0596 8.15231C27.7405 8.15723 28.4266 8.16218 29.1155 8.1622C29.9349 8.16218 30.7273 8.15683 31.494 8.15165C38.1522 8.1067 42.8694 8.07485 46.4542 11.6596C50.0251 15.2284 49.9997 19.8683 49.9621 26.7446C49.9581 27.4727 49.954 28.226 49.954 29.0057C49.954 29.7269 49.9566 30.4213 49.9591 31.0907C49.9779 36.1153 49.9915 39.7304 48.8603 42.6568C45.9997 49.9963 38.7293 49.9302 31.2658 49.8623C30.5495 49.8558 29.8314 49.8493 29.1152 49.8493C28.4292 49.8493 27.7452 49.8543 27.0657 49.8592C19.3486 49.9155 12.2128 49.9676 9.37241 42.6568C8.24338 39.7503 8.25841 35.4283 8.27476 30.7248C8.27673 30.1567 8.27872 29.5831 8.27872 29.0057C8.27872 28.295 8.27621 27.6092 8.27377 26.9469C8.25532 21.9204 8.24186 18.2535 9.37241 15.3523C12.2196 8.04516 19.3013 8.09629 27.0596 8.15231ZM30.6037 11.8961C29.553 11.906 28.4371 11.9165 27.2524 11.9184V11.9137C13.3567 11.9278 12.0396 12.1912 12.0396 28.9963C12.0396 45.6086 12.517 46.0837 29.1222 46.0837C29.9602 46.0837 30.7837 46.0927 31.5888 46.1016C39.5336 46.1888 45.679 46.2562 46.0826 37.4212C47.2507 11.7393 45.3525 11.7572 30.6037 11.8961ZM37.7447 17.8784C37.7447 16.4977 38.8643 15.3782 40.2449 15.3782C41.6255 15.3782 42.7451 16.4977 42.7451 17.8784C42.7451 19.259 41.6255 20.3786 40.2449 20.3786C38.8643 20.3786 37.7447 19.259 37.7447 17.8784ZM18.4182 29.0057C18.4182 23.0951 23.2093 18.3017 29.1199 18.3017C35.0305 18.3017 39.8192 23.0951 39.8192 29.0057C39.8192 34.9163 35.0305 39.7074 29.1199 39.7074C23.2093 39.7074 18.4182 34.9163 18.4182 29.0057ZM29.1199 22.0579C38.3045 22.0579 38.3163 35.9536 29.1199 35.9536C19.9376 35.9536 19.9235 22.0579 29.1199 22.0579Z" fill="white"/>
</svg>
