<svg width="56" height="56" viewBox="0 0 56 56" fill="none" xmlns="http://www.w3.org/2000/svg">
<path d="M27.8722 55.7444C43.2656 55.7444 55.7444 43.2656 55.7444 27.8722C55.7444 12.4788 43.2656 0 27.8722 0C12.4788 0 0 12.4788 0 27.8722C0 43.2656 12.4788 55.7444 27.8722 55.7444Z" fill="#FFC42A"/>
<path d="M33.6045 21.4551L31.274 14.2289C30.3156 11.257 26.1109 11.257 25.1524 14.2289L22.822 21.4551L15.2293 21.4385C12.1067 21.4317 10.8073 25.4306 13.3376 27.2605L19.49 31.7099L17.1279 38.9259C16.1565 41.8935 19.5581 44.365 22.0804 42.524L28.2132 38.0478L34.3461 42.524C36.8683 44.365 40.27 41.8935 39.2985 38.9259L36.9365 31.7099L43.0888 27.2605C45.6191 25.4306 44.3198 21.4317 41.1972 21.4385L33.6045 21.4551Z" fill="white" stroke="#E36130" stroke-width="4.28803"/>
</svg>
