<svg width="175" height="293" viewBox="0 0 175 293" fill="none" xmlns="http://www.w3.org/2000/svg">
<rect width="175" height="293" fill="#BFBFBF"/>
<g id="components">
<path d="M-772 -453C-772 -454.105 -771.105 -455 -770 -455H4485C4486.1 -455 4487 -454.105 4487 -453V3219C4487 3220.1 4486.1 3221 4485 3221H-770C-771.105 3221 -772 3220.1 -772 3219V-453Z" fill="#646464"/>
<g id="sgcu 1" clip-path="url(#clip0_345_9061)">
<g id="Layer 1">
<g id="Group">
<path id="Vector" d="M148.233 232.321C145.38 231.367 142.403 231.176 139.445 230.894C138.844 230.837 138.249 230.728 137.539 230.628C137.685 229.846 137.785 229.237 137.909 228.634C139.129 222.804 139.475 216.923 138.638 211.024C137.557 203.434 134.662 196.562 130.126 190.374C129.865 190.02 129.683 189.608 129.416 189.129C129.965 188.941 130.35 188.799 130.745 188.674C138.313 186.305 145.644 183.354 152.253 178.942C159.691 173.979 166.962 168.764 174.299 163.65C174.487 163.519 174.596 163.274 174.772 163.041C174.511 162.813 174.332 162.626 174.123 162.477C168.986 158.868 163.924 155.151 158.693 151.684C148.287 144.791 137.138 139.504 124.882 136.75C123.826 136.513 123.113 135.871 122.731 134.883C122.503 134.301 122.333 133.695 122.175 133.089C120.795 127.841 119.435 122.584 118.042 117.339C112.635 96.9779 107.173 76.6315 101.82 56.2548C98.7611 44.6075 95.9117 32.9057 92.9075 21.2463C91.1627 14.4712 89.2964 7.7295 87.4727 0.975657C87.4059 0.727198 87.2087 0.512068 86.9052 0C74.9645 45.6801 63.1117 91.0421 51.2832 136.301C49.6567 136.677 48.2335 136.992 46.8164 137.331C37.3093 139.625 28.6184 143.788 20.3585 148.921C13.5976 153.121 7.20088 157.838 0.837524 162.604C0.567453 162.807 0.352003 163.089 0 163.447C6.76695 169.001 13.5916 174.249 20.9715 178.748C28.3605 183.254 36.1956 186.759 44.7468 189.047C43.7455 190.641 42.8867 191.995 42.037 193.356C38.0406 199.761 35.616 206.694 35.1821 214.251C34.8968 219.22 35.4491 224.15 36.2381 229.052C36.3261 229.601 36.3564 230.161 36.4353 230.928C35.7131 230.928 35.1548 230.906 34.5964 230.931C32.4055 231.034 30.1933 231.012 28.0237 231.294C23.2777 231.912 18.7927 233.476 14.4321 235.397C13.9132 235.624 13.4368 235.97 12.9756 236.309C12.3869 236.745 12.0925 237.363 12.2321 238.094C12.6721 240.378 13.1424 242.657 13.6401 245.138C16.0404 244.205 18.119 243.351 20.228 242.587C23.9817 241.23 27.8173 240.233 31.838 240.039C34.1685 239.927 36.4384 240.13 38.6353 240.939C42.3041 242.287 44.2674 245.026 44.3402 248.908C44.3645 250.265 44.3797 251.626 44.3827 252.986C44.3918 260.615 44.3948 268.245 44.3948 275.878C44.3948 278.511 43.2114 280.444 40.9446 281.792C38.9509 282.98 36.7357 283.386 34.5114 283.583C30.0568 283.974 25.7842 283.104 21.6664 281.377C20.3494 280.823 19.7031 279.95 19.7213 278.508C19.7577 275.632 19.7304 272.757 19.7425 269.881C19.7425 269.466 19.7941 269.045 19.876 268.639C20.2644 266.703 21.0443 265.969 23.0137 265.718C23.5812 265.645 24.1638 265.66 24.7403 265.657C27.4107 265.651 30.0811 265.657 32.7514 265.645C33.3067 265.645 33.8651 265.579 34.5509 265.533C34.5509 262.664 34.56 259.952 34.5448 257.243C34.5418 256.446 33.9683 256.38 33.3401 256.38C29.99 256.392 26.6369 256.349 23.2868 256.407C21.0746 256.446 18.9384 256.922 16.9234 257.885C12.6751 259.916 10.6268 263.445 10.3416 267.972C10.0139 273.187 10.0108 278.414 10.2718 283.643C10.3507 285.216 10.9242 286.376 12.2958 287.085C14.2925 288.119 16.2771 289.2 18.3497 290.058C26.0603 293.242 33.9804 293.858 41.9976 291.415C49.5626 289.113 54.0082 283.749 54.0628 275.269C54.1174 266.748 54.1326 258.225 54.0537 249.704C53.996 243.369 51.623 238.13 46.2398 234.47C45.8726 234.221 45.554 233.903 45.0139 233.452C46.0122 232.973 46.7769 232.555 47.5811 232.224C50.2878 231.116 53.0128 230.058 55.7196 228.943C63.8885 225.577 72.0513 222.207 80.2081 218.817C85.1847 216.747 90.0368 216.92 94.9406 219.205C99.4893 221.323 104.132 223.244 108.769 225.165C113.836 227.264 118.944 229.261 124.035 231.303C124.648 231.549 125.319 231.722 125.711 232.597C124.958 232.918 124.269 233.252 123.553 233.512C122.376 233.939 121.162 234.27 119.997 234.73C118.934 235.151 118.731 235.561 118.886 236.676C119.189 238.848 119.511 241.018 119.857 243.181C119.909 243.511 120.121 243.817 120.285 244.187C120.625 244.099 120.88 244.06 121.116 243.969C124.345 242.699 127.701 241.923 131.112 241.333C134.775 240.696 138.428 240.018 142.173 240.215C146.315 240.433 149.923 243.145 150.845 246.99C151.546 249.901 151.756 252.938 151.076 255.852C149.641 262.003 147.972 268.097 146.385 274.211C145.781 276.535 145.125 278.85 144.518 281.174C144.206 282.374 143.611 283.38 142.315 283.54C141.098 283.689 139.848 283.571 138.589 283.571C138.404 282.913 138.191 282.419 138.137 281.913C137.876 279.58 137.688 277.238 137.415 274.905C137.129 272.469 136.926 270.011 136.416 267.621C135.597 263.791 133.555 260.815 129.476 259.985C126.982 259.479 124.403 259.367 121.851 259.185C120.749 259.107 120.345 259.531 120.288 260.688C120.191 262.618 120.191 264.551 120.185 266.485C120.179 267.96 120.397 268.163 121.933 268.212C122.928 268.242 123.923 268.197 124.915 268.251C126.6 268.342 127.225 268.957 127.461 270.617C127.534 271.133 127.68 271.639 127.744 272.154C128.302 276.708 128.842 281.265 129.41 285.816C129.558 287.004 129.746 288.185 129.962 289.361C130.183 290.585 130.975 291.224 132.18 291.47C133.564 291.752 134.932 292.106 136.31 292.415C139.123 293.045 141.93 292.982 144.688 292.152C149.783 290.615 152.624 286.995 153.962 282.01C154.784 278.944 155.643 275.887 156.468 272.82C158.213 266.336 160.337 259.943 160.82 253.168C161.005 250.583 160.905 248.041 160.319 245.547C158.765 238.915 154.726 234.482 148.236 232.309L148.233 232.321ZM27.3955 156.032C29.9931 154.226 32.8941 153.033 35.8315 151.936C43.2903 149.148 50.9919 147.285 58.8209 145.894C65.0629 144.785 71.3382 144.037 77.6864 144.025C78.9306 144.025 80.1717 144.185 81.5342 144.279V157.635C80.3022 157.956 28.4606 158.078 25.6689 157.775C26.0452 156.944 26.734 156.493 27.3955 156.032ZM81.3824 182.696C76.6972 182.424 72.0817 182.154 67.1021 181.863C71.6113 177.924 76.4332 175.094 81.2914 172.225C81.6586 173.455 81.7223 180.751 81.3824 182.696ZM27.4441 170.082C27.0162 169.84 26.6521 169.486 26.2606 169.183C26.3152 169.073 26.3729 168.964 26.4275 168.858H65.7851C65.4755 169.613 64.8474 169.892 64.3588 170.301C61.7947 172.44 59.1001 174.446 56.6998 176.757C54.1295 179.23 51.3772 179.878 47.9664 178.945C40.6988 176.951 33.9561 173.797 27.4441 170.085V170.082ZM79.6346 207.657C75.3225 209.381 71.0166 211.121 66.7136 212.86C60.2744 215.463 53.8382 218.071 47.399 220.674C46.9711 220.847 46.5311 220.989 45.8514 221.235C45.8514 220.28 45.7968 219.547 45.8605 218.829C46.1549 215.46 46.1245 212.057 46.9286 208.739C48.2183 203.412 50.8158 198.758 54.2024 194.504C54.7213 193.85 55.2887 193.235 55.8106 192.583C56.454 191.777 57.2611 191.474 58.2929 191.562C60.4808 191.747 62.6717 191.862 64.8626 192.035C69.9666 192.435 75.0707 192.847 80.1747 193.262C80.5844 193.295 80.9879 193.365 81.5402 193.435C81.5766 193.983 81.6373 194.486 81.6373 194.986C81.6434 198.222 81.5736 201.461 81.6586 204.697C81.7011 206.264 80.9971 207.115 79.6437 207.657H79.6346ZM81.7951 97.4505C81.7769 101.211 81.7011 104.971 81.6829 108.731C81.6495 115.888 81.6373 123.045 81.6161 130.199C81.6161 130.617 81.6373 131.038 81.5857 131.45C81.4401 132.601 80.9879 133.129 79.8439 133.344C78.9761 133.507 78.087 133.58 77.207 133.65C76.0629 133.741 74.9159 133.798 73.7658 133.853C70.176 134.023 66.5831 134.186 62.7415 134.365C68.7437 110.967 74.6822 87.8152 80.6329 64.666C80.7057 64.3873 80.909 64.1449 81.0547 63.8873C81.2125 63.8904 81.3703 63.8934 81.5281 63.8964C81.6616 64.6327 81.9104 65.372 81.9104 66.1083C81.8922 76.5557 81.8497 87.0001 81.7951 97.4475V97.4505ZM146.976 169.74C139.524 174.034 131.78 177.618 123.347 179.581C122.115 179.869 121.104 179.687 120.136 178.903C116.237 175.749 112.325 172.612 108.426 169.461C108.362 169.41 108.362 169.279 108.308 169.11C108.468 169.022 108.641 168.849 108.814 168.849C121.778 168.837 134.741 168.837 148.114 168.837C147.55 169.289 147.292 169.558 146.979 169.737L146.976 169.74ZM92.6071 62.945C92.7194 62.9208 92.7709 62.8965 92.8195 62.9026C92.862 62.9087 92.9227 62.942 92.9318 62.9723C98.9826 86.3396 105.03 109.71 111.072 133.077C111.136 133.326 111.16 133.589 111.175 133.85C111.181 133.941 111.105 134.038 110.996 134.316C104.973 133.974 98.8855 133.632 92.6101 133.274V62.945H92.6071ZM92.3765 146.1C92.3765 145.53 92.3765 144.958 92.3765 144.091C93.5205 144.091 94.449 144.043 95.3745 144.1C99.814 144.367 104.263 144.534 108.684 144.973C122.278 146.318 135.151 149.984 146.9 157.138C147.122 157.275 147.35 157.408 147.556 157.563C147.62 157.611 147.629 157.738 147.723 157.996C147.122 158.038 146.567 158.111 146.014 158.111C128.945 158.12 111.876 158.123 94.8071 158.126C94.7555 158.126 94.7009 158.126 94.6493 158.126C92.777 158.105 92.3158 157.644 92.3249 155.823C92.3431 152.584 92.3583 149.342 92.3765 146.103V146.1ZM92.6344 172.382C92.7527 172.316 92.8711 172.249 92.9894 172.185C97.3955 175.133 101.802 178.079 106.202 181.036C106.344 181.133 106.399 181.366 106.463 181.484C106.402 181.621 106.384 181.669 106.356 181.715C106.329 181.76 106.305 181.815 106.262 181.836C106.168 181.881 106.068 181.927 105.968 181.933C101.908 182.157 97.8507 182.381 93.7905 182.593C93.4901 182.608 93.1836 182.554 92.6738 182.514C92.5949 179.1 92.6526 175.739 92.6314 172.382H92.6344ZM128.108 219.95C128.087 220.208 128.023 220.462 127.968 220.717C127.959 220.756 127.895 220.783 127.756 220.901C127.443 220.807 127.049 220.723 126.679 220.574C117.217 216.778 107.755 212.978 98.2968 209.175C96.8918 208.612 95.4959 208.021 94.091 207.463C92.8559 206.973 92.3552 206.048 92.3734 204.761C92.4159 201.625 92.4371 198.492 92.4705 195.356C92.4887 193.665 92.8074 193.365 94.4612 193.244C99.9415 192.847 105.419 192.432 110.896 192.02C112.41 191.907 113.924 191.795 115.436 191.665C116.78 191.55 117.86 191.956 118.768 193.01C122.567 197.437 125.413 202.379 126.997 208.006C128.096 211.914 128.457 215.899 128.105 219.944L128.108 219.95Z" fill="white"/>
<path id="Vector_2" d="M108.274 231.915H99.0919C99.0919 232.724 99.0919 233.394 99.0919 234.064C99.0919 245.559 99.0858 257.055 99.0888 268.551C99.0888 271.79 99.0949 275.032 99.1253 278.271C99.1404 279.807 98.5032 280.816 97.0405 281.407C92.246 283.343 87.318 284.234 82.1775 283.292C78.5604 282.628 75.535 280.95 74.6064 276.42C74.3182 275.011 74.4153 273.511 74.4153 272.054C74.4153 259.043 74.4365 246.032 74.4426 233.018C74.4426 232.624 74.3424 232.234 74.2757 231.752C71.6508 231.752 69.1474 231.743 66.6409 231.752C64.9992 231.758 64.8566 231.903 64.7928 233.527C64.7777 233.894 64.7928 234.258 64.7928 234.624C64.7837 238.281 64.7504 241.939 64.7716 245.599C64.8353 255.943 64.8232 266.291 65.0386 276.632C65.1631 282.525 67.9851 287.001 73.2621 289.761C79.4374 292.991 85.9555 293.782 92.7558 292.23C97.5898 291.127 102.051 289.049 106.487 286.928C107.868 286.267 108.484 285.077 108.481 283.489C108.459 266.872 108.475 250.253 108.469 233.636C108.469 233.085 108.347 232.534 108.274 231.915Z" fill="white"/>
<path id="Vector_3" d="M168.464 280.02C164.51 280.013 161.888 283.565 162.094 286.373C162.079 289.997 164.907 292.87 168.494 292.873C172.054 292.876 175.027 289.925 175 286.419C174.973 282.856 172.051 280.026 168.464 280.02Z" fill="white"/>
</g>
</g>
</g>
<path d="M-770 -454H4485V-456H-770V-454ZM4486 -453V3219H4488V-453H4486ZM4485 3220H-770V3222H4485V3220ZM-771 3219V-453H-773V3219H-771ZM-770 3220C-770.552 3220 -771 3219.55 -771 3219H-773C-773 3220.66 -771.657 3222 -770 3222V3220ZM4486 3219C4486 3219.55 4485.55 3220 4485 3220V3222C4486.66 3222 4488 3220.66 4488 3219H4486ZM4485 -454C4485.55 -454 4486 -453.552 4486 -453H4488C4488 -454.657 4486.66 -456 4485 -456V-454ZM-770 -456C-771.657 -456 -773 -454.657 -773 -453H-771C-771 -453.552 -770.552 -454 -770 -454V-456Z" fill="black" fill-opacity="0.1"/>
</g>
<defs>
<clipPath id="clip0_345_9061">
<rect width="175" height="293" fill="white"/>
</clipPath>
</defs>
</svg>
