<svg width="745" height="745" viewBox="0 0 745 745" fill="none" xmlns="http://www.w3.org/2000/svg">
<g filter="url(#filter0_d_345_15482)">
<path d="M357.7 454.999C347.076 474.818 335.015 503.571 335.214 531.699C335.568 581.878 374.86 622.408 374.86 622.408C374.86 622.408 413.614 581.518 413.222 531.301C413.023 503.173 400.557 474.546 389.654 454.836L357.7 454.999Z" fill="#E36131"/>
<path d="M361.637 455.014C353.604 469.945 344.53 491.594 344.68 512.821C344.947 550.624 374.567 581.152 374.567 581.152C374.567 581.152 403.754 550.324 403.487 512.521C403.337 491.294 393.958 469.739 385.715 454.892L361.637 455.014Z" fill="#FF7542"/>
<path d="M366.1 454.956C361.065 464.358 355.348 478.001 355.443 491.352C355.611 515.204 374.274 534.387 374.274 534.387C374.274 534.387 392.627 514.978 392.497 491.163C392.402 477.812 386.493 464.228 381.326 454.878L366.175 454.955L366.1 454.956Z" fill="#FF8E65"/>
<path d="M417.913 462.494C447.305 407.737 480.611 328.32 480.062 250.612C479.083 111.924 370.502 0.0386047 370.502 0.0386047C370.502 0.0386047 263.51 113.024 264.49 251.712C265.039 329.494 299.464 408.491 329.628 462.944L417.987 462.494L417.913 462.494Z" fill="white"/>
<path d="M306.536 92.9631C325.334 104.606 347.547 111.356 371.25 111.236C395.027 111.114 417.106 104.176 435.7 92.3044C405.335 35.9395 370.464 0 370.464 0C370.464 0 336.103 36.2925 306.536 92.9631Z" fill="url(#paint0_linear_345_15482)"/>
<path d="M436.715 230.73C436.967 266.433 408.256 295.496 372.589 295.64C336.885 295.822 307.766 267.055 307.551 231.389C307.299 195.685 336.01 166.623 371.677 166.478C407.381 166.296 436.5 195.064 436.715 230.73Z" fill="url(#paint1_linear_345_15482)"/>
<path d="M415.412 230.838C415.581 254.765 396.366 274.216 372.438 274.338C348.511 274.46 329.022 255.206 328.853 231.279C328.684 207.352 347.899 187.901 371.827 187.779C395.754 187.657 415.243 206.911 415.412 230.838Z" fill="#003A4C"/>
<path d="M403.493 460.687L343.984 460.991L344.098 477.113L403.607 476.809L403.493 460.687Z" fill="url(#paint2_linear_345_15482)"/>
<path d="M373.556 437.665C354.354 437.763 335.684 438.908 317.959 440.986C321.876 448.655 325.753 455.986 329.59 462.905L357.493 462.763C362.893 462.585 368.292 462.408 373.806 462.417C379.319 462.426 384.72 462.474 390.122 462.596L418.024 462.454C421.763 455.496 425.574 448.088 429.345 440.418C411.555 438.559 392.908 437.566 373.706 437.664L373.556 437.665Z" fill="url(#paint3_linear_345_15482)"/>
<path d="M209.46 473.76C218.551 449.373 228.878 413.99 228.596 379.3C228.159 317.494 194.276 267.485 194.276 267.485C194.276 267.485 161.064 317.799 161.539 379.642C161.783 414.295 172.609 449.569 182.007 473.9L209.46 473.76Z" fill="white"/>
<path d="M174.428 308.879C180.315 314.1 187.2 317.102 194.589 317.102C202.015 317.064 208.856 313.991 214.632 308.674C205.116 283.556 194.238 267.447 194.238 267.447C194.238 267.447 183.588 283.591 174.428 308.879Z" fill="url(#paint4_linear_345_15482)"/>
<path d="M204.945 473.803L186.434 473.898L186.479 480.209L204.989 480.115L204.945 473.803Z" fill="url(#paint5_linear_345_15482)"/>
<path d="M195.649 462.653C189.649 462.684 183.876 463.163 178.332 464.092C179.556 467.536 180.742 470.793 181.964 473.862L190.665 473.818C192.315 473.734 194.002 473.688 195.727 473.679C197.452 473.67 199.14 473.699 200.791 473.766L209.492 473.722C210.633 470.603 211.847 467.334 212.986 463.915C207.467 463.08 201.65 462.623 195.649 462.653Z" fill="url(#paint6_linear_345_15482)"/>
<path d="M187.414 479.909C181.862 490.289 175.554 505.285 175.658 519.986C175.843 546.239 196.396 567.362 196.396 567.362C196.396 567.362 216.61 545.994 216.462 519.778C216.359 505.077 209.84 490.146 204.141 479.823L187.414 479.909Z" fill="#E36131"/>
<path d="M189.44 479.9C185.257 487.685 180.498 498.998 180.577 510.099C180.717 529.901 196.206 545.799 196.206 545.799C196.206 545.799 211.432 529.707 211.33 509.942C211.251 498.841 206.334 487.577 202.041 479.836L189.44 479.9Z" fill="#FF7542"/>
<path d="M191.766 479.888C189.138 484.814 186.151 491.918 186.2 498.894C186.288 511.345 195.997 521.384 195.997 521.384C195.997 521.384 205.564 511.246 205.514 498.833C205.465 491.857 202.377 484.784 199.68 479.885L191.729 479.926L191.766 479.888Z" fill="#FF8E65"/>
<path d="M318.756 384.053L206.344 419.956L205.813 344.874L231.029 351.909L318.057 290.332L318.756 384.053Z" fill="white"/>
<path d="M538.185 472.043C528.75 447.751 517.924 412.476 517.716 377.785C517.28 315.98 550.454 265.629 550.454 265.629C550.454 265.629 584.374 315.6 584.773 377.443C585.018 412.097 574.692 447.479 565.638 471.903L538.185 472.043Z" fill="white"/>
<path d="M570.883 306.892C565.069 312.172 558.228 315.245 550.84 315.32C543.414 315.358 536.529 312.355 530.679 307.097C539.839 281.884 550.489 265.665 550.489 265.665C550.489 265.665 561.366 281.699 570.883 306.892Z" fill="url(#paint7_linear_345_15482)"/>
<path d="M542.704 478.417L561.215 478.323L561.17 472.011L542.66 472.106L542.704 478.417Z" fill="url(#paint8_linear_345_15482)"/>
<path d="M551.868 460.835C557.869 460.804 563.648 461.225 569.205 462.097C568.029 465.553 566.852 468.784 565.711 471.903L557.01 471.948C555.359 471.881 553.672 471.852 551.946 471.861C550.221 471.87 548.534 471.916 546.884 471.999L538.183 472.044C536.999 468.937 535.738 465.68 534.551 462.273C540.058 461.383 545.868 460.865 551.868 460.835Z" fill="url(#paint9_linear_345_15482)"/>
<path d="M427.667 383.496L540.541 418.288L540.01 343.131L514.933 350.459L426.967 289.775L427.667 383.496Z" fill="white"/>
<path d="M543.63 478.093C538.077 488.472 531.77 503.469 531.874 518.17C532.059 544.423 552.611 565.546 552.611 565.546C552.611 565.546 572.826 544.177 572.678 517.962C572.574 503.261 566.055 488.33 560.357 478.007L543.63 478.093Z" fill="#E36131"/>
<path d="M545.694 478.117C541.51 485.902 536.752 497.215 536.831 508.316C536.971 528.118 552.46 544.017 552.46 544.017C552.46 544.017 567.686 527.924 567.584 508.16C567.505 497.059 562.588 485.795 558.295 478.053L545.694 478.117Z" fill="#FF7542"/>
<path d="M548.018 478.106C545.39 483.033 542.402 490.136 542.452 497.112C542.54 509.563 552.286 519.565 552.286 519.565C552.286 519.565 561.854 509.427 561.803 497.013C561.754 490.037 558.666 482.965 555.969 478.066L548.018 478.106Z" fill="#FF8E65"/>
</g>
<defs>
<filter id="filter0_d_345_15482" x="157.534" y="0" width="431.244" height="630.408" filterUnits="userSpaceOnUse" color-interpolation-filters="sRGB">
<feFlood flood-opacity="0" result="BackgroundImageFix"/>
<feColorMatrix in="SourceAlpha" type="matrix" values="0 0 0 0 0 0 0 0 0 0 0 0 0 0 0 0 0 0 127 0" result="hardAlpha"/>
<feOffset dy="4"/>
<feGaussianBlur stdDeviation="2"/>
<feComposite in2="hardAlpha" operator="out"/>
<feColorMatrix type="matrix" values="0 0 0 0 0.216408 0 0 0 0 0.0869823 0 0 0 0 0.345833 0 0 0 0.25 0"/>
<feBlend mode="normal" in2="BackgroundImageFix" result="effect1_dropShadow_345_15482"/>
<feBlend mode="normal" in="SourceGraphic" in2="effect1_dropShadow_345_15482" result="shape"/>
</filter>
<linearGradient id="paint0_linear_345_15482" x1="406.125" y1="15.0451" x2="347.504" y2="144.623" gradientUnits="userSpaceOnUse">
<stop stop-color="#00B8C9"/>
<stop offset="1" stop-color="#0084AE"/>
</linearGradient>
<linearGradient id="paint1_linear_345_15482" x1="392.782" y1="149.043" x2="352.966" y2="306.097" gradientUnits="userSpaceOnUse">
<stop stop-color="#00B8C9"/>
<stop offset="1" stop-color="#0084AE"/>
</linearGradient>
<linearGradient id="paint2_linear_345_15482" x1="386.499" y1="441.819" x2="354.401" y2="494.497" gradientUnits="userSpaceOnUse">
<stop stop-color="#00B8C9"/>
<stop offset="1" stop-color="#0084AE"/>
</linearGradient>
<linearGradient id="paint3_linear_345_15482" x1="319.891" y1="376.434" x2="432.212" y2="518.591" gradientUnits="userSpaceOnUse">
<stop stop-color="#00B8C9"/>
<stop offset="1" stop-color="#0084AE"/>
</linearGradient>
<linearGradient id="paint4_linear_345_15482" x1="209.849" y1="274.081" x2="184.964" y2="329.008" gradientUnits="userSpaceOnUse">
<stop stop-color="#00B8C9"/>
<stop offset="1" stop-color="#0084AE"/>
</linearGradient>
<linearGradient id="paint5_linear_345_15482" x1="200.208" y1="468.609" x2="190.824" y2="486.012" gradientUnits="userSpaceOnUse">
<stop stop-color="#00B8C9"/>
<stop offset="1" stop-color="#0084AE"/>
</linearGradient>
<linearGradient id="paint6_linear_345_15482" x1="177.306" y1="443.41" x2="215.603" y2="491.871" gradientUnits="userSpaceOnUse">
<stop stop-color="#00B8C9"/>
<stop offset="1" stop-color="#0084AE"/>
</linearGradient>
<linearGradient id="paint7_linear_345_15482" x1="535.009" y1="272.42" x2="560.454" y2="327.155" gradientUnits="userSpaceOnUse">
<stop stop-color="#00B8C9"/>
<stop offset="1" stop-color="#0084AE"/>
</linearGradient>
<linearGradient id="paint8_linear_345_15482" x1="547.256" y1="466.932" x2="556.811" y2="484.296" gradientUnits="userSpaceOnUse">
<stop stop-color="#00B8C9"/>
<stop offset="1" stop-color="#0084AE"/>
</linearGradient>
<linearGradient id="paint9_linear_345_15482" x1="569.915" y1="441.406" x2="532.313" y2="490.218" gradientUnits="userSpaceOnUse">
<stop stop-color="#00B8C9"/>
<stop offset="1" stop-color="#0084AE"/>
</linearGradient>
</defs>
</svg>
