<svg width="211" height="211" viewBox="0 0 211 211" fill="none" xmlns="http://www.w3.org/2000/svg">
<path d="M123.578 133.011C126.003 141.576 130.474 153.078 138.256 161.029C152.138 175.213 174.431 175.935 174.431 175.935C174.431 175.935 174.21 153.632 160.306 139.448C152.524 131.497 141.12 126.78 132.61 124.171L123.578 133.011Z" fill="#E36131"/>
<path d="M124.701 131.931C126.52 138.392 129.888 147.05 135.761 153.05C146.22 163.736 163.018 164.273 163.018 164.273C163.018 164.273 162.842 147.467 152.383 136.781C146.511 130.781 137.927 127.227 131.507 125.27L124.701 131.931Z" fill="#FF7542"/>
<path d="M125.953 130.686C127.105 134.748 129.228 140.204 132.922 143.978C139.521 150.72 150.091 151.044 150.091 151.044C150.091 151.044 149.974 140.469 143.396 133.727C139.702 129.953 134.292 127.713 130.257 126.474L125.974 130.666L125.953 130.686Z" fill="#FF8E65"/>
<path d="M142.741 118.573C136.051 94.8999 123.7 63.1307 102.202 41.1653C63.8324 1.96261 2.25879 0.000244141 2.25879 0.000244141C2.25879 0.000244141 2.89753 61.6019 41.2667 100.805C62.7858 122.791 94.2616 135.801 117.786 142.998L142.762 118.553L142.741 118.573Z" fill="white"/>
<path d="M9.61013 44.0515C18.1476 42.1922 26.3117 38.0002 33.0115 31.4428C39.7326 24.8646 44.0989 16.8136 46.1202 8.31777C22.0139 0.632132 2.2373 0 2.2373 0C2.2373 0 2.44426 19.7856 9.61013 44.0515Z" fill="url(#paint0_linear_412_10059)"/>
<path d="M84.427 47.4364C94.3046 57.5286 94.1309 73.7016 84.0389 83.5582C73.9467 93.4359 57.7737 93.2621 47.917 83.1701C38.0394 73.0779 38.2132 56.9049 48.3052 47.0482C58.3974 37.1706 74.5704 37.3444 84.427 47.4364Z" fill="url(#paint1_linear_412_10059)"/>
<path d="M78.4058 53.3295C85.0255 60.093 84.9092 70.917 78.1457 77.5366C71.3823 84.1563 60.5582 84.04 53.9385 77.2765C47.3189 70.513 47.4352 59.689 54.1986 53.0694C60.9621 46.4497 71.7862 46.566 78.4058 53.3295Z" fill="#003A4C"/>
<path d="M138.148 122.028L121.327 138.491L125.787 143.049L142.609 126.585L138.148 122.028Z" fill="url(#paint2_linear_412_10059)"/>
<path d="M123.321 123.714C117.893 129.027 112.904 134.49 108.44 139.96C111.659 141.064 114.773 142.084 117.764 142.997L125.651 135.278C127.136 133.741 128.621 132.205 130.19 130.69C131.759 129.175 133.306 127.703 134.874 126.251L142.761 118.531C141.912 115.522 140.96 112.365 139.925 109.144C134.36 113.511 128.791 118.36 123.363 123.673L123.321 123.714Z" fill="url(#paint3_linear_412_10059)"/>
<path d="M86.6212 179.146C82.5058 169.703 75.7215 156.791 66.1134 146.996C49.0143 129.525 25.6543 124.617 25.6543 124.617C25.6543 124.617 30.0386 148.077 47.1587 165.547C56.7458 175.343 69.5091 182.403 78.8611 186.741L86.6212 179.146Z" fill="white"/>
<path d="M31.3847 141.86C34.491 141.726 37.2715 140.686 39.3703 138.652C41.4693 136.598 42.5688 133.84 42.749 130.737C33.1472 126.208 25.6328 124.616 25.6328 124.616C25.6328 124.616 27.0415 132.142 31.3847 141.86Z" fill="url(#paint4_linear_412_10059)"/>
<path d="M85.3505 180.401L80.1182 185.522L81.8643 187.306L87.0966 182.185L85.3505 180.401Z" fill="url(#paint5_linear_412_10059)"/>
<path d="M79.6486 179.785C77.9524 181.445 76.4443 183.17 75.1244 184.96C76.4182 185.603 77.6495 186.204 78.8396 186.741L81.299 184.334C81.7447 183.856 82.2113 183.379 82.6989 182.902C83.1866 182.424 83.674 181.968 84.1612 181.533L86.6207 179.125C86.0882 177.924 85.5353 176.659 84.9197 175.373C83.1227 176.654 81.3447 178.125 79.6486 179.785Z" fill="url(#paint6_linear_412_10059)"/>
<path d="M82.0469 186.964C83.3204 191.446 85.6475 197.45 89.7147 201.606C96.9777 209.026 108.617 209.382 108.617 209.382C108.617 209.382 108.491 197.737 101.249 190.317C97.1814 186.161 91.2288 183.706 86.7749 182.336L82.0469 186.964Z" fill="#E36131"/>
<path d="M82.6198 186.404C83.5697 189.771 85.3252 194.3 88.3964 197.438C93.8748 203.035 102.641 203.297 102.641 203.297C102.641 203.297 102.547 194.527 97.0892 188.93C94.018 185.792 89.5275 183.94 86.1818 182.918L82.6198 186.404Z" fill="#FF7542"/>
<path d="M83.2771 185.76C83.8837 187.886 84.986 190.73 86.9159 192.701C90.3606 196.221 95.8761 196.406 95.8761 196.406C95.8761 196.406 95.8094 190.888 92.3857 187.369C90.4558 185.397 87.6362 184.234 85.5243 183.582L83.2769 185.781L83.2771 185.76Z" fill="#FF8E65"/>
<path d="M93.0302 123.536L70.9585 164.691L50.1864 143.467L59.2814 138.53L67.0908 97.0544L93.0302 123.536Z" fill="white"/>
<path d="M179.529 88.1922C170.176 83.8749 157.413 76.8147 147.826 66.9983C130.727 49.5278 126.322 26.0677 126.322 26.0677C126.322 26.0677 149.682 30.9551 166.781 48.4466C176.368 58.242 183.152 71.1542 187.289 80.5972L179.529 88.1922Z" fill="white"/>
<path d="M143.458 32.1887C143.257 35.2914 142.158 38.0489 140.08 40.1035C137.981 42.1579 135.2 43.1979 132.094 43.3114C127.772 33.6146 126.342 26.0677 126.342 26.0677C126.342 26.0677 133.836 27.6377 143.458 32.1887Z" fill="url(#paint7_linear_412_10059)"/>
<path d="M182.563 88.7621L187.795 83.6411L186.049 81.857L180.817 86.978L182.563 88.7621Z" fill="url(#paint8_linear_412_10059)"/>
<path d="M180.338 81.2358C182.034 79.5757 183.791 78.1051 185.609 76.8239C186.224 78.1312 186.777 79.375 187.31 80.5765L184.85 82.9836C184.363 83.4189 183.876 83.8752 183.388 84.3525C182.9 84.8298 182.434 85.3073 181.988 85.785L179.529 88.1922C178.339 87.6339 177.086 87.0541 175.813 86.411C177.133 84.642 178.641 82.8959 180.338 81.2358Z" fill="url(#paint9_linear_412_10059)"/>
<path d="M123.815 93.4049L165.434 72.2436L144.642 50.9991L139.531 59.9862L97.8758 66.9232L123.815 93.4049Z" fill="white"/>
<path d="M182.736 88.4159C184.01 92.8981 186.337 98.9022 190.404 103.058C197.667 110.479 209.307 110.834 209.307 110.834C209.307 110.834 209.18 99.1896 201.938 91.7691C197.871 87.6135 191.918 85.1579 187.465 83.7884L182.736 88.4159Z" fill="#E36131"/>
<path d="M183.329 87.8551C184.279 91.2219 186.035 95.7513 189.106 98.8892C194.584 104.487 203.351 104.749 203.351 104.749C203.351 104.749 203.256 95.9783 197.799 90.3812C194.728 87.2433 190.237 85.3908 186.891 84.3689L183.329 87.8551Z" fill="#FF7542"/>
<path d="M183.987 87.2119C184.593 89.3373 185.696 92.1813 187.626 94.1531C191.07 97.6727 196.586 97.8369 196.586 97.8369C196.586 97.8369 196.519 92.3186 193.096 88.7993C191.166 86.8275 188.346 85.6644 186.234 85.0123L183.987 87.2119Z" fill="#FF8E65"/>
<defs>
<linearGradient id="paint0_linear_412_10059" x1="16.4996" y1="-5.5321" x2="35.5038" y2="47.4557" gradientUnits="userSpaceOnUse">
<stop stop-color="#00B8C9"/>
<stop offset="1" stop-color="#0084AE"/>
</linearGradient>
<linearGradient id="paint1_linear_412_10059" x1="49.5118" y1="36.2779" x2="81.432" y2="91.8799" gradientUnits="userSpaceOnUse">
<stop stop-color="#00B8C9"/>
<stop offset="1" stop-color="#0084AE"/>
</linearGradient>
<linearGradient id="paint2_linear_412_10059" x1="128.139" y1="121.334" x2="133.51" y2="145.156" gradientUnits="userSpaceOnUse">
<stop stop-color="#00B8C9"/>
<stop offset="1" stop-color="#0084AE"/>
</linearGradient>
<linearGradient id="paint3_linear_412_10059" x1="91.2591" y1="121.056" x2="162.214" y2="130.57" gradientUnits="userSpaceOnUse">
<stop stop-color="#00B8C9"/>
<stop offset="1" stop-color="#0084AE"/>
</linearGradient>
<linearGradient id="paint4_linear_412_10059" x1="31.8895" y1="122.208" x2="39.9348" y2="144.679" gradientUnits="userSpaceOnUse">
<stop stop-color="#00B8C9"/>
<stop offset="1" stop-color="#0084AE"/>
</linearGradient>
<linearGradient id="paint5_linear_412_10059" x1="82.5783" y1="180.226" x2="84.7003" y2="187.76" gradientUnits="userSpaceOnUse">
<stop stop-color="#00B8C9"/>
<stop offset="1" stop-color="#0084AE"/>
</linearGradient>
<linearGradient id="paint6_linear_412_10059" x1="69.1529" y1="179.356" x2="93.3428" y2="182.598" gradientUnits="userSpaceOnUse">
<stop stop-color="#00B8C9"/>
<stop offset="1" stop-color="#0084AE"/>
</linearGradient>
<linearGradient id="paint7_linear_412_10059" x1="123.8" y1="32.2502" x2="146.072" y2="40.7973" gradientUnits="userSpaceOnUse">
<stop stop-color="#00B8C9"/>
<stop offset="1" stop-color="#0084AE"/>
</linearGradient>
<linearGradient id="paint8_linear_412_10059" x1="180.702" y1="84.2408" x2="188.188" y2="86.545" gradientUnits="userSpaceOnUse">
<stop stop-color="#00B8C9"/>
<stop offset="1" stop-color="#0084AE"/>
</linearGradient>
<linearGradient id="paint9_linear_412_10059" x1="180.128" y1="70.7398" x2="182.864" y2="94.979" gradientUnits="userSpaceOnUse">
<stop stop-color="#00B8C9"/>
<stop offset="1" stop-color="#0084AE"/>
</linearGradient>
</defs>
</svg>
