<svg width="29" height="30" viewBox="0 0 29 30" fill="none" xmlns="http://www.w3.org/2000/svg">
<g id="heroicons-mini/magnifying-glass">
<path id="Vector (Stroke)" fill-rule="evenodd" clip-rule="evenodd" d="M12.7695 5.57539C8.45979 5.57539 4.96609 9.14592 4.96609 13.5504C4.96609 17.9549 8.45979 21.5254 12.7695 21.5254C14.9246 21.5254 16.874 20.6339 18.2873 19.1896C19.7006 17.7452 20.5729 15.7529 20.5729 13.5504C20.5729 9.14592 17.0792 5.57539 12.7695 5.57539ZM2.83789 13.5504C2.83789 7.9447 7.28442 3.40039 12.7695 3.40039C18.2546 3.40039 22.7011 7.9447 22.7011 13.5504C22.7011 15.961 21.8777 18.1767 20.5044 19.9174L25.227 24.7439C25.6426 25.1686 25.6426 25.8572 25.227 26.2819C24.8115 26.7066 24.1377 26.7066 23.7222 26.2819L18.9995 21.4554C17.2963 22.8589 15.1283 23.7004 12.7695 23.7004C7.28442 23.7004 2.83789 19.1561 2.83789 13.5504Z" fill="#392F61"/>
</g>
</svg>
