<svg width="44" height="48" viewBox="0 0 44 48" fill="none" xmlns="http://www.w3.org/2000/svg">
<path fill-rule="evenodd" clip-rule="evenodd" d="M12.182 37.3231C13.1325 37.8246 14.1911 38.0864 15.2657 38.086C18.8452 38.086 21.7673 35.2387 21.8992 31.69L21.9124 0H29.819C29.8197 0.673085 29.8823 1.34468 30.0059 2.00632H24.2167V2.00742H32.1243C32.1232 4.65963 33.0845 7.22216 34.8299 9.21918L34.8321 9.22173C36.6125 10.3848 38.6935 11.0032 40.8202 11.0012V12.7622C41.5645 12.9216 42.3341 13.0065 43.1256 13.0065V20.9152C39.1781 20.9198 35.3293 19.6821 32.1244 17.3775V33.4468C32.1244 41.4709 25.5953 48 17.57 48C15.5715 48.0005 13.5944 47.5882 11.7626 46.7889C9.93213 45.9903 8.28633 44.8224 6.92796 43.3584L6.92498 43.3563C3.17178 40.7212 0.711426 36.3633 0.711426 31.4404C0.711426 23.4151 7.24049 16.885 15.2657 16.885C15.922 16.8881 16.5772 16.9359 17.227 17.0279V18.9001C17.2727 18.8992 17.3181 18.8976 17.3637 18.8961C17.4321 18.8937 17.5007 18.8913 17.57 18.8913C18.2262 18.8944 18.8815 18.9422 19.5312 19.0342V27.1068C18.9112 26.9122 18.2549 26.7989 17.57 26.7989C15.8076 26.801 14.118 27.5021 12.8719 28.7484C11.6258 29.9947 10.925 31.6844 10.9233 33.4467C10.9234 34.8387 11.3633 36.1951 12.1803 37.3222L12.182 37.3231ZM3.97571 38.6397C4.65118 40.3996 5.65923 41.9961 6.92177 43.3529C5.63353 41.9743 4.63878 40.371 3.97571 38.6397Z" fill="white"/>
</svg>
