<svg width="49" height="48" viewBox="0 0 49 48" fill="none" xmlns="http://www.w3.org/2000/svg">
<path fill-rule="evenodd" clip-rule="evenodd" d="M0.530273 24C0.530273 10.7452 11.2754 0 24.5303 0C37.7851 0 48.5303 10.7452 48.5303 24C48.5303 37.2548 37.7851 48 24.5303 48C11.2754 48 0.530273 37.2548 0.530273 24ZM23.8115 19.5075L23.8618 20.338L23.0225 20.2363C19.9671 19.8465 17.2979 18.5245 15.0316 16.3043L13.9236 15.2027L13.6382 16.0162C13.0339 17.8296 13.42 19.7448 14.6791 21.0328C15.3506 21.7446 15.1995 21.8463 14.0411 21.4226C13.6382 21.287 13.2857 21.1854 13.2521 21.2362C13.1346 21.3548 13.5375 22.8971 13.8565 23.5072C14.293 24.3546 15.1827 25.1851 16.1564 25.6766L16.979 26.0664L16.0053 26.0833C15.0652 26.0833 15.0316 26.1003 15.1323 26.4562C15.4681 27.5578 16.7943 28.7272 18.2716 29.2357L19.3124 29.5916L18.4059 30.1339C17.0629 30.9135 15.4849 31.3542 13.9068 31.3881C13.1514 31.405 12.5303 31.4728 12.5303 31.5237C12.5303 31.6931 14.5783 32.6422 15.7703 33.0151C19.346 34.1167 23.5932 33.6422 26.7829 31.7609C29.0492 30.422 31.3155 27.7612 32.3731 25.1851C32.9439 23.8123 33.5147 21.304 33.5147 20.1007C33.5147 19.3211 33.565 19.2194 34.5051 18.2872C35.0591 17.7449 35.5795 17.1517 35.6802 16.9822C35.8481 16.6602 35.8313 16.6602 34.9752 16.9483C33.5482 17.4568 33.3468 17.389 34.0519 16.6263C34.5723 16.084 35.1934 15.101 35.1934 14.8129C35.1934 14.762 34.9416 14.8468 34.6562 14.9993C34.354 15.1688 33.6825 15.423 33.1789 15.5756L32.2724 15.8637L31.4498 15.3044C30.9965 14.9993 30.3586 14.6604 30.0229 14.5587C29.1667 14.3214 27.8573 14.3553 27.085 14.6265C24.9866 15.3891 23.6604 17.3551 23.8115 19.5075Z" fill="white"/>
</svg>
