<svg width="71" height="70" viewBox="0 0 71 70" fill="none" xmlns="http://www.w3.org/2000/svg">
<path fill-rule="evenodd" clip-rule="evenodd" d="M14.5 17.5C10.634 17.5 7.5 20.634 7.5 24.5V52.5C7.5 56.366 10.634 59.5 14.5 59.5H56.5C60.366 59.5 63.5 56.366 63.5 52.5V24.5C63.5 20.634 60.366 17.5 56.5 17.5H50.9497C50.0215 17.5 49.1313 17.1313 48.4749 16.4749L44.5503 12.5503C43.2375 11.2375 41.457 10.5 39.6005 10.5H31.3995C29.543 10.5 27.7625 11.2375 26.4497 12.5503L22.5251 16.4749C21.8687 17.1313 20.9785 17.5 20.0503 17.5H14.5ZM35.5 49C41.299 49 46 44.299 46 38.5C46 32.701 41.299 28 35.5 28C29.701 28 25 32.701 25 38.5C25 44.299 29.701 49 35.5 49Z" fill="#1E293B"/>
</svg>
