<svg width="15" height="14" viewBox="0 0 15 14" fill="none" xmlns="http://www.w3.org/2000/svg">
<g id="heroicons-solid/pencil-square">
<g id="Subtract">
<path d="M12.8192 1.53667C12.2316 0.94904 11.2788 0.94904 10.6912 1.53667L10.0279 2.19997L12.1559 4.32796L12.8192 3.66466C13.4068 3.07703 13.4068 2.1243 12.8192 1.53667Z" fill="white"/>
<path d="M11.5479 4.93596L9.4199 2.80797L4.60432 7.62355C4.25076 7.97711 3.99087 8.41319 3.84812 8.89239L3.38967 10.4314C3.3446 10.5827 3.38607 10.7465 3.4977 10.8582C3.60932 10.9698 3.77314 11.0113 3.92443 10.9662L5.46348 10.5077C5.94268 10.365 6.37876 10.1051 6.73232 9.75153L11.5479 4.93596Z" fill="white"/>
<path d="M3.37178 3.24554C2.42202 3.24554 1.6521 4.01546 1.6521 4.96521V10.9841C1.6521 11.9338 2.42202 12.7038 3.37178 12.7038H9.39064C10.3404 12.7038 11.1103 11.9338 11.1103 10.9841V7.97465C11.1103 7.73721 10.9178 7.54473 10.6804 7.54473C10.443 7.54473 10.2505 7.73721 10.2505 7.97465V10.9841C10.2505 11.459 9.86552 11.8439 9.39064 11.8439H3.37178C2.8969 11.8439 2.51194 11.459 2.51194 10.9841V4.96521C2.51194 4.49034 2.8969 4.10538 3.37178 4.10538H6.38121C6.61865 4.10538 6.81113 3.91289 6.81113 3.67546C6.81113 3.43802 6.61865 3.24554 6.38121 3.24554H3.37178Z" fill="white"/>
</g>
</g>
</svg>
